<svg width="36" height="36" viewBox="0 0 36 36" fill="none" xmlns="http://www.w3.org/2000/svg">
<path d="M18 36C21.5601 36 25.0402 34.9443 28.0003 32.9665C30.9603 30.9886 33.2674 28.1774 34.6298 24.8883C35.9922 21.5992 36.3487 17.98 35.6541 14.4884C34.9596 10.9967 33.2453 7.78943 30.7279 5.27208C28.2106 2.75474 25.0033 1.04041 21.5116 0.345874C18.02 -0.348661 14.4008 0.00779917 11.1117 1.37018C7.82263 2.73255 5.01141 5.03966 3.03355 7.99974C1.05569 10.9598 1.88484e-06 14.4399 1.57361e-06 18C0.0091488 22.7711 1.90851 27.3441 5.28218 30.7178C8.65586 34.0915 13.2289 35.9908 18 36ZM18 2.76924C21.0124 2.76924 23.9571 3.66251 26.4618 5.33608C28.9664 7.00966 30.9186 9.38838 32.0714 12.1714C33.2242 14.9545 33.5258 18.0169 32.9381 20.9714C32.3504 23.9259 30.8998 26.6397 28.7698 28.7698C26.6397 30.8998 23.9259 32.3504 20.9714 32.9381C18.0169 33.5258 14.9545 33.2242 12.1714 32.0714C9.38837 30.9186 7.00966 28.9664 5.33608 26.4618C3.6625 23.9571 2.76923 21.0124 2.76923 18C2.77381 13.962 4.37995 10.0906 7.23528 7.23528C10.0906 4.37995 13.962 2.77382 18 2.76924ZM14.2962 23.2096L20.0769 18L14.2962 12.7904C14.0254 12.5425 13.8642 12.1972 13.848 11.8304C13.8317 11.4637 13.9618 11.1055 14.2096 10.8346C14.3386 10.692 14.4962 10.5782 14.6722 10.5007C14.8482 10.4232 15.0385 10.3836 15.2308 10.3846C15.5762 10.388 15.9085 10.5172 16.1654 10.7481L23.0885 16.9789C23.2301 17.1086 23.3432 17.2663 23.4206 17.4421C23.498 17.6179 23.538 17.8079 23.538 18C23.538 18.1921 23.498 18.3821 23.4206 18.5579C23.3432 18.7337 23.2301 18.8914 23.0885 19.0212L16.1654 25.2519C16.0321 25.3793 15.8748 25.4788 15.7025 25.5446C15.5303 25.6103 15.3467 25.641 15.1624 25.6349C14.9782 25.6287 14.797 25.5858 14.6296 25.5087C14.4621 25.4316 14.3117 25.3218 14.1873 25.1858C14.0628 25.0499 13.9667 24.8904 13.9047 24.7168C13.8427 24.5432 13.816 24.3589 13.8261 24.1748C13.8363 23.9908 13.8831 23.8106 13.9638 23.6448C14.0445 23.4791 14.1575 23.3311 14.2962 23.2096Z" />
</svg>
