<svg width="26" height="26" viewBox="0 0 26 26" fill="none" xmlns="http://www.w3.org/2000/svg">
<path d="M25.1875 13C25.1875 10.5895 24.4727 8.23322 23.1335 6.22899C21.7944 4.22477 19.8909 2.66267 17.664 1.74022C15.437 0.817781 12.9865 0.576428 10.6223 1.04668C8.25819 1.51694 6.08659 2.67769 4.38214 4.38214C2.67768 6.08659 1.51694 8.2582 1.04668 10.6223C0.576424 12.9865 0.817776 15.437 1.74022 17.664C2.66266 19.8909 4.22476 21.7944 6.22899 23.1335C8.23321 24.4727 10.5895 25.1875 13 25.1875C16.2304 25.1813 19.3268 23.8953 21.611 21.611C23.8953 19.3268 25.1813 16.2304 25.1875 13ZM2.6875 13C2.6875 10.9604 3.29232 8.96657 4.42547 7.27069C5.55862 5.5748 7.16921 4.25303 9.05358 3.4725C10.9379 2.69197 13.0114 2.48775 15.0119 2.88566C17.0123 3.28357 18.8498 4.26574 20.292 5.70797C21.7343 7.1502 22.7164 8.98771 23.1143 10.9881C23.5123 12.9886 23.308 15.0621 22.5275 16.9464C21.747 18.8308 20.4252 20.4414 18.7293 21.5745C17.0334 22.7077 15.0396 23.3125 13 23.3125C10.2659 23.3094 7.64468 22.2219 5.71139 20.2886C3.77809 18.3553 2.6906 15.7341 2.6875 13ZM13.6914 16.9141C13.6036 17.01 13.4967 17.0866 13.3777 17.139C13.2587 17.1914 13.1301 17.2184 13 17.2184C12.8699 17.2184 12.7413 17.1914 12.6223 17.139C12.5033 17.0866 12.3964 17.01 12.3086 16.9141L8.08984 12.2266C7.93354 12.0526 7.84604 11.8276 7.84375 11.5938C7.84307 11.4636 7.86985 11.3347 7.92235 11.2156C7.97485 11.0964 8.05189 10.9897 8.14844 10.9023C8.33184 10.7346 8.57436 10.6465 8.82268 10.6575C9.071 10.6685 9.30479 10.7776 9.47266 10.9609L13 14.875L16.5273 10.9609C16.6967 10.7837 16.9288 10.6799 17.1737 10.6718C17.4187 10.6636 17.6572 10.7517 17.838 10.9172C18.0188 11.0827 18.1276 11.3124 18.1411 11.5571C18.1546 11.8019 18.0717 12.0422 17.9102 12.2266L13.6914 16.9141Z" fill="#376CF1"/>
</svg>
