<svg width="33" height="32" viewBox="0 0 33 32" fill="none" xmlns="http://www.w3.org/2000/svg">
<path d="M16.8691 0C13.7046 0 10.6112 0.938384 7.98002 2.69649C5.34884 4.45459 3.29808 6.95345 2.08707 9.87706C0.876073 12.8007 0.55922 16.0177 1.17658 19.1214C1.79395 22.2251 3.3178 25.0761 5.55544 27.3137C7.79308 29.5513 10.644 31.0752 13.7477 31.6926C16.8514 32.3099 20.0685 31.9931 22.9921 30.7821C25.9157 29.5711 28.4146 27.5203 30.1727 24.8891C31.9308 22.2579 32.8691 19.1645 32.8691 16C32.861 11.759 31.1727 7.69409 28.1739 4.69527C25.175 1.69645 21.1101 0.00813226 16.8691 0ZM16.8691 29.5385C14.1915 29.5385 11.574 28.7444 9.34758 27.2568C7.12119 25.7692 5.38593 23.6548 4.36124 21.1809C3.33655 18.7071 3.06844 15.985 3.59082 13.3588C4.11321 10.7326 5.40262 8.32025 7.29601 6.42686C9.1894 4.53347 11.6017 3.24406 14.2279 2.72168C16.8541 2.19929 19.5763 2.4674 22.0501 3.49209C24.5239 4.51679 26.6383 6.25204 28.126 8.47843C29.6136 10.7048 30.4076 13.3223 30.4076 16C30.4035 19.5894 28.9759 23.0306 26.4378 25.5686C23.8997 28.1067 20.4585 29.5344 16.8691 29.5385ZM20.1614 11.3692L15.023 16L20.1614 20.6308C20.4021 20.8511 20.5454 21.1581 20.5598 21.4841C20.5743 21.8101 20.4586 22.1285 20.2384 22.3692C20.1237 22.496 19.9836 22.5971 19.8272 22.666C19.6708 22.735 19.5016 22.7701 19.3307 22.7692C19.0237 22.7662 18.7283 22.6513 18.4999 22.4461L12.3461 16.9077C12.2201 16.7924 12.1196 16.6521 12.0508 16.4959C11.982 16.3396 11.9465 16.1707 11.9465 16C11.9465 15.8293 11.982 15.6604 12.0508 15.5041C12.1196 15.3479 12.2201 15.2076 12.3461 15.0923L18.4999 9.55384C18.6184 9.44061 18.7582 9.35218 18.9113 9.29373C19.0644 9.23528 19.2277 9.20799 19.3914 9.21346C19.5552 9.21893 19.7162 9.25706 19.8651 9.32559C20.0139 9.39413 20.1476 9.4917 20.2582 9.61258C20.3689 9.73346 20.4543 9.87522 20.5094 10.0295C20.5645 10.1839 20.5883 10.3476 20.5792 10.5113C20.5702 10.6749 20.5286 10.8351 20.4569 10.9824C20.3851 11.1297 20.2847 11.2612 20.1614 11.3692Z" fill="#163045"/>
</svg>
