<svg width="35" height="29" viewBox="0 0 35 29" fill="none" xmlns="http://www.w3.org/2000/svg">
<path d="M33.709 15.9273L21.6152 28.0211C21.2349 28.3965 20.7219 28.607 20.1875 28.607C19.6531 28.607 19.1401 28.3965 18.7598 28.0211C18.5719 27.8338 18.4228 27.6113 18.321 27.3663C18.2193 27.1213 18.1669 26.8586 18.1669 26.5933C18.1669 26.3281 18.2193 26.0654 18.321 25.8204C18.4228 25.5754 18.5719 25.3529 18.7598 25.1656L27.4102 16.5152H2.71875C2.18417 16.5152 1.67149 16.3029 1.29349 15.9248C0.915485 15.5468 0.703125 15.0342 0.703125 14.4996C0.703125 13.965 0.915485 13.4523 1.29349 13.0743C1.67149 12.6963 2.18417 12.484 2.71875 12.484H27.4102L18.7598 3.83357C18.3811 3.45492 18.1684 2.94134 18.1684 2.40584C18.1684 2.14069 18.2206 1.87813 18.3221 1.63316C18.4235 1.38819 18.5723 1.1656 18.7598 0.978106C18.9473 0.790613 19.1698 0.641886 19.4148 0.540415C19.6598 0.438945 19.9223 0.386719 20.1875 0.386719C20.723 0.386719 21.2366 0.599447 21.6152 0.978106L33.709 13.0719C33.8969 13.2591 34.046 13.4816 34.1477 13.7266C34.2495 13.9716 34.3018 14.2343 34.3018 14.4996C34.3018 14.7649 34.2495 15.0275 34.1477 15.2726C34.046 15.5176 33.8969 15.7401 33.709 15.9273Z" fill="white"/>
</svg>
