<svg id="Layer_1" data-name="Layer 1" xmlns="http://www.w3.org/2000/svg" viewBox="0 0 273.68 291.71"><defs><style>.cls-1{fill:#00622D;}.cls-2,.cls-3{fill:none;stroke:#00622D;stroke-linecap:round;stroke-miterlimit:10;}.cls-2{stroke-width:7px;}.cls-3{stroke-width:7.1px;}</style></defs><path class="cls-1" d="M134.43,138.57c13.88,0,22.09,9,22.09,24.31V197.3a1,1,0,0,1-1,1h-1.82a4.29,4.29,0,0,1-4.29-4.29V163.1c0-11.54-5.33-17.76-15-17.76s-15,6.22-15,17.76v29.07a6.11,6.11,0,0,1-6.12,6.11h0a1,1,0,0,1-1-1V162.88C112.34,147.56,120.45,138.57,134.43,138.57Z"/><path class="cls-2" d="M190.87,199.81c17.52,0,39.15,22,39.15,22s-21.64,22-39.16,21.95-24.28-9.84-24.28-22S173.35,199.8,190.87,199.81Z"/><path class="cls-2" d="M78.18,243.73c-17.52,0-39.15-22-39.15-22s21.65-21.95,39.17-21.95,24.28,9.84,24.27,22S95.7,243.74,78.18,243.73Z"/><path class="cls-3" d="M115.87,193.05s2.53,37.73-41,29.84c-35.35-6.39-47.31-67-47.31-67s45.05,3.94,59.13,44.49"/><path class="cls-3" d="M153,193.12s-2.47,37.65,41.07,29.76c35.35-6.4,47.31-67,47.31-67s-45.05,3.94-59.13,44.49"/><path class="cls-2" d="M74.09,150.9c-17.52,0-39.15-22-39.15-22S56.59,107,74.11,107s24.28,9.84,24.27,22S91.61,150.9,74.09,150.9Z"/><path class="cls-2" d="M194.78,107c17.52,0,39.15,22,39.15,22s-21.64,22-39.16,21.95-24.28-9.84-24.28-22S177.26,107,194.78,107Z"/><path class="cls-3" d="M115.35,164.47a54.06,54.06,0,0,1-22.64-16.84"/><path class="cls-3" d="M176.77,148.55A54.11,54.11,0,0,1,153.45,165"/><path class="cls-2" d="M112.87,60.4c0-17.52,22-39.15,22-39.15s22,21.64,22,39.16-9.84,24.28-22,24.28S112.87,77.91,112.87,60.4Z"/><path class="cls-2" d="M165.67,64.87c13.39-11.3,44.09-8.47,44.09-8.47s-2.37,30.74-15.76,42-24.9,8.15-32.72-1.12S152.28,76.17,165.67,64.87Z"/><path class="cls-2" d="M103.83,64.87C90.44,53.57,59.74,56.4,59.74,56.4s2.37,30.74,15.76,42,24.9,8.15,32.72-1.12S117.22,76.17,103.83,64.87Z"/></svg>