<svg width="35" height="35" viewBox="0 0 35 35" fill="none" xmlns="http://www.w3.org/2000/svg">
<g clip-path="url(#clip0_2077_2296)">
<path d="M162.4 203C148.618 211.437 132.759 215.87 116.6 215.8H113.3C97.4001 215.2 81.2001 210.6 65.3001 202L165.7 101.7C166.976 100.146 167.628 98.1723 167.529 96.1639C167.43 94.1555 166.588 92.2556 165.166 90.8337C163.745 89.4118 161.845 88.5696 159.836 88.471C157.828 88.3724 155.854 89.0243 154.3 90.3L54.0001 190.7C45.4001 174.8 40.8001 158.6 40.2001 142.7C39.5114 125.427 43.9662 108.338 53.0001 93.6C79.1001 50.5 140.2 27.5 216.5 32C218.443 32.1393 220.271 32.9742 221.648 34.3517C223.026 35.7292 223.861 37.5569 224 39.5C228.5 115.8 205.5 176.9 162.4 203ZM57.1001 196.1C56.0001 194.3 55.0001 192.5 54.0001 190.7L34.3001 210.3C32.7978 211.817 31.9551 213.865 31.9551 216C31.9551 218.135 32.7978 220.183 34.3001 221.7C35.8292 223.179 37.873 224.005 40.0001 224.005C42.1271 224.005 44.171 223.179 45.7001 221.7L65.3001 202L59.9001 198.9C58.7766 198.178 57.8216 197.224 57.1001 196.1V196.1Z" fill="black"/>
<path d="M161.445 202.556C147.663 210.994 131.804 215.426 115.645 215.356H112.345C96.445 214.756 80.245 210.156 64.345 201.556L164.745 101.256C166.021 99.702 166.673 97.7287 166.574 95.7203C166.475 93.7119 165.633 91.812 164.211 90.3901C162.789 88.9682 160.89 88.126 158.881 88.0274C156.873 87.9288 154.899 88.5807 153.345 89.8564L53.045 190.256C44.445 174.356 39.845 158.156 39.245 142.256C38.5563 124.983 43.0112 107.895 52.045 93.1564C78.145 50.0564 139.245 27.0564 215.545 31.5564C217.488 31.6957 219.316 32.5306 220.693 33.9081C222.071 35.2856 222.906 37.1133 223.045 39.0564C227.545 115.356 204.545 176.456 161.445 202.556ZM56.145 195.656C55.045 193.856 54.045 192.056 53.045 190.256L33.345 209.856C31.8427 211.373 31 213.422 31 215.556C31 217.691 31.8427 219.74 33.345 221.256C34.8741 222.735 36.9179 223.561 39.045 223.561C41.1721 223.561 43.2159 222.735 44.745 221.256L64.345 201.556L58.945 198.456C57.8215 197.735 56.8665 196.78 56.145 195.656V195.656Z" fill="black"/>
<path d="M22.2034 27.7539C20.3192 28.9075 18.151 29.5134 15.9417 29.5039H15.4905C13.3167 29.4219 11.1019 28.793 8.92803 27.6172L22.6546 13.9043C22.829 13.6918 22.9181 13.422 22.9046 13.1474C22.8912 12.8728 22.776 12.6131 22.5816 12.4187C22.3872 12.2243 22.1275 12.1091 21.8529 12.0957C21.5783 12.0822 21.3085 12.1713 21.096 12.3457L7.38311 26.0723C6.20732 23.8985 5.57842 21.6836 5.49639 19.5098C5.40223 17.1482 6.01129 14.8119 7.24639 12.7969C10.8147 6.90432 19.1683 3.75979 29.5999 4.37502C29.8656 4.39407 30.1154 4.50821 30.3038 4.69654C30.4921 4.88487 30.6062 5.13476 30.6253 5.40041C31.2405 15.8321 28.096 24.1856 22.2034 27.7539ZM7.80693 26.8106C7.65654 26.5645 7.51982 26.3184 7.38311 26.0723L4.68975 28.752C4.48436 28.9593 4.36914 29.2394 4.36914 29.5313C4.36914 29.8231 4.48436 30.1032 4.68975 30.3106C4.89881 30.5127 5.17824 30.6257 5.46904 30.6257C5.75985 30.6257 6.03928 30.5127 6.24834 30.3106L8.92803 27.6172L8.18975 27.1934C8.03614 27.0947 7.90558 26.9642 7.80693 26.8106Z" fill="#00622D"/>
<path d="M9.4 5H0.6C0.44087 5 0.288258 4.94732 0.175736 4.85355C0.0632141 4.75978 0 4.63261 0 4.5C0 4.36739 0.0632141 4.24021 0.175736 4.14645C0.288258 4.05268 0.44087 4 0.6 4H9.4C9.55913 4 9.71174 4.05268 9.82426 4.14645C9.93679 4.24021 10 4.36739 10 4.5C10 4.63261 9.93679 4.75978 9.82426 4.85355C9.71174 4.94732 9.55913 5 9.4 5Z" fill="#00622D"/>
</g>
<defs>
<clipPath id="clip0_2077_2296">
<rect width="35" height="35" fill="white"/>
</clipPath>
</defs>
</svg>
