<svg width="17" height="14" viewBox="0 0 17 14" fill="none" xmlns="http://www.w3.org/2000/svg">
<path d="M5.93876 13.375C5.6653 13.3737 5.40312 13.256 5.20811 13.0469L0.394441 7.79687C0.200661 7.58553 0.0917969 7.29888 0.0917969 7C0.0917969 6.70111 0.200661 6.41447 0.394441 6.20312C0.58822 5.99178 0.851042 5.87305 1.12509 5.87305C1.39913 5.87305 1.66195 5.99178 1.85573 6.20312L5.93876 10.6562L14.8355 0.953123C14.9314 0.848476 15.0453 0.765466 15.1707 0.708831C15.296 0.652196 15.4304 0.623047 15.5661 0.623047C15.7018 0.623047 15.8362 0.652196 15.9615 0.708831C16.0869 0.765466 16.2008 0.848476 16.2968 0.953123C16.3927 1.05777 16.4688 1.182 16.5207 1.31873C16.5727 1.45546 16.5994 1.60201 16.5994 1.75C16.5994 1.89799 16.5727 2.04454 16.5207 2.18126C16.4688 2.31799 16.3927 2.44223 16.2968 2.54687L6.66941 13.0469C6.4744 13.256 6.21222 13.3737 5.93876 13.375V13.375Z" fill="#00622D"/>
</svg>
