<svg width="18" height="18" viewBox="0 0 18 18" fill="none" xmlns="http://www.w3.org/2000/svg">
<path d="M9 0C7.21997 0 5.47991 0.527841 3.99987 1.51677C2.51983 2.50571 1.36628 3.91131 0.685088 5.55585C0.00389956 7.20038 -0.17433 9.00998 0.172936 10.7558C0.520203 12.5016 1.37737 14.1053 2.63604 15.364C3.89471 16.6226 5.49836 17.4798 7.24419 17.8271C8.99002 18.1743 10.7996 17.9961 12.4442 17.3149C14.0887 16.6337 15.4943 15.4802 16.4832 14.0001C17.4722 12.5201 18 10.78 18 9C17.9954 6.61446 17.0457 4.32793 15.3589 2.64109C13.6721 0.954255 11.3855 0.0045744 9 0ZM9 16.6154C7.49382 16.6154 6.02146 16.1687 4.76912 15.332C3.51678 14.4952 2.5407 13.3058 1.96431 11.9143C1.38792 10.5227 1.23711 8.99155 1.53095 7.51431C1.82479 6.03707 2.55008 4.68014 3.61511 3.61511C4.68014 2.55008 6.03708 1.82478 7.51431 1.53094C8.99155 1.2371 10.5228 1.38791 11.9143 1.9643C13.3058 2.54069 14.4952 3.51677 15.332 4.76912C16.1688 6.02146 16.6154 7.49382 16.6154 9C16.6131 11.019 15.81 12.9547 14.3824 14.3824C12.9547 15.81 11.019 16.6131 9 16.6154ZM14.5385 9C14.5385 9.18361 14.4655 9.3597 14.3357 9.48953C14.2059 9.61937 14.0298 9.69231 13.8462 9.69231H9C8.81639 9.69231 8.6403 9.61937 8.51047 9.48953C8.38063 9.3597 8.30769 9.18361 8.30769 9V4.15385C8.30769 3.97023 8.38063 3.79414 8.51047 3.66431C8.6403 3.53448 8.81639 3.46154 9 3.46154C9.18361 3.46154 9.3597 3.53448 9.48954 3.66431C9.61937 3.79414 9.69231 3.97023 9.69231 4.15385V8.30769H13.8462C14.0298 8.30769 14.2059 8.38063 14.3357 8.51046C14.4655 8.6403 14.5385 8.81639 14.5385 9Z"/>
</svg>
