<svg width="24" height="24" viewBox="0 0 24 24" fill="none" xmlns="http://www.w3.org/2000/svg">
<path d="M14.6256 6.75012C13.986 6.75216 13.3494 6.83725 12.7318 7.00324C12.4847 6.60812 12.1886 6.24587 11.8506 5.92512L12.7318 4.65012C12.7892 4.57037 12.8302 4.48 12.8523 4.38426C12.8744 4.28853 12.8773 4.18935 12.8607 4.09249C12.8441 3.99564 12.8085 3.90306 12.7557 3.82014C12.703 3.73721 12.6343 3.66561 12.5537 3.60949C12.4732 3.55185 12.3821 3.51071 12.2856 3.48846C12.1891 3.4662 12.0892 3.46327 11.9916 3.47983C11.894 3.49639 11.8006 3.53211 11.7169 3.58494C11.6331 3.63777 11.5607 3.70665 11.5037 3.78762L10.6131 5.06262C9.8338 4.66412 8.96593 4.47054 8.09118 4.50012L7.81931 2.97199C7.7845 2.77557 7.67309 2.60101 7.50958 2.48673C7.34607 2.37245 7.14386 2.32781 6.94743 2.36262C6.75101 2.39743 6.57645 2.50884 6.46217 2.67235C6.34789 2.83586 6.30325 3.03807 6.33806 3.23449L6.60993 4.76262C5.77693 5.03452 5.02574 5.51167 4.42556 6.15012L3.15056 5.25949C2.9875 5.14697 2.78655 5.10353 2.59158 5.13866C2.39661 5.17379 2.22346 5.28464 2.10993 5.44699C2.05253 5.52674 2.01157 5.61711 1.98944 5.71285C1.96731 5.80858 1.96445 5.90776 1.98103 6.00461C1.99761 6.10146 2.03329 6.19405 2.086 6.27697C2.13872 6.35989 2.2074 6.4315 2.28806 6.48762L3.56306 7.37824C3.16339 8.16044 2.9698 9.03164 3.00056 9.90949L1.47243 10.1814C1.28486 10.2111 1.11555 10.3109 0.998682 10.4606C0.88181 10.6103 0.826078 10.7987 0.842736 10.9879C0.859393 11.1771 0.9472 11.3529 1.08843 11.4799C1.22966 11.6068 1.4138 11.6755 1.60368 11.672H1.73493L3.26306 11.4001C3.39554 11.8102 3.58152 12.2011 3.81618 12.5626C3.09754 13.2274 2.59612 14.0934 2.37744 15.0476C2.15877 16.0018 2.233 16.9998 2.59045 17.9111C2.9479 18.8225 3.57194 19.6048 4.38103 20.1559C5.19012 20.707 6.14662 21.0012 7.12556 21.0001H14.6256C16.5152 21.0001 18.3275 20.2494 19.6637 18.9133C20.9999 17.5771 21.7506 15.7648 21.7506 13.8751C21.7506 11.9854 20.9999 10.1732 19.6637 8.83698C18.3275 7.50078 16.5152 6.75012 14.6256 6.75012ZM4.55681 10.4157V10.3782C4.38653 9.41206 4.60561 8.41776 5.16618 7.61262V7.59387H5.17556C5.74273 6.78621 6.60476 6.23398 7.57556 6.05637H7.62243C8.57404 5.88985 9.55304 6.1018 10.3506 6.64699L10.3974 6.67512L10.4349 6.70324C10.7748 6.94008 11.07 7.23527 11.3068 7.57512C9.7794 8.3829 8.59444 9.71431 7.96931 11.3251C7.69066 11.2765 7.40841 11.2514 7.12556 11.2501C6.40978 11.2511 5.70278 11.4078 5.05368 11.7095C4.80912 11.3129 4.64061 10.8741 4.55681 10.4157ZM14.6256 19.5001H7.12556C6.23045 19.5001 5.37201 19.1445 4.73907 18.5116C4.10614 17.8787 3.75056 17.0202 3.75056 16.1251C3.75056 15.23 4.10614 14.3716 4.73907 13.7386C5.37201 13.1057 6.23045 12.7501 7.12556 12.7501C7.27911 12.7501 7.43252 12.7595 7.58493 12.7782C7.52817 13.1411 7.49996 13.5078 7.50056 13.8751C7.50056 14.074 7.57958 14.2648 7.72023 14.4054C7.86088 14.5461 8.05165 14.6251 8.25056 14.6251C8.44947 14.6251 8.64024 14.5461 8.78089 14.4054C8.92154 14.2648 9.00056 14.074 9.00056 13.8751C9.00056 12.7626 9.33046 11.6751 9.94854 10.75C10.5666 9.82501 11.4451 9.10404 12.473 8.6783C13.5008 8.25255 14.6318 8.14116 15.7229 8.3582C16.8141 8.57524 17.8164 9.11097 18.603 9.89764C19.3897 10.6843 19.9254 11.6866 20.1425 12.7777C20.3595 13.8689 20.2481 14.9999 19.8224 16.0277C19.3966 17.0555 18.6757 17.9341 17.7506 18.5521C16.8256 19.1702 15.7381 19.5001 14.6256 19.5001Z" fill="#5A7082"/>
</svg>
