<svg width="507" height="293" viewBox="0 0 507 293" fill="none" xmlns="http://www.w3.org/2000/svg">
<g clip-path="url(#clip0_386_115)">
<path d="M400.6 57.35C400.6 57.35 336.6 105.9 309.81 107.55C296.273 108.419 282.911 104.112 272.43 95.5C258.48 84.06 244.78 71.23 228 64C204.73 53.94 175.6 58.57 155 72.66C144.09 80.12 133.8 89.37 124.45 96.57C115.089 103.785 103.599 107.689 91.7799 107.67C60.9999 107.65 -0.310059 54 -0.310059 54C-0.310059 54 61.6899 2.10001 88.4699 0.500007C101.989 -0.354183 115.328 3.95627 125.79 12.56C139.25 23.56 152.39 35.82 168.33 43.25C185 51 208.61 51.9 225.74 45C244.01 37.62 258.33 23.34 273.74 11.49C283.114 4.26181 294.623 0.350547 306.46 0.370006C337.15 0.360006 400.6 57.35 400.6 57.35Z" fill="#1A6237"/>
<path d="M400.6 242.34C400.6 242.34 336.6 290.89 309.81 292.54C296.272 293.413 282.909 289.106 272.43 280.49C258.48 269.05 244.78 256.22 228 249C204.73 238.94 175.6 243.57 155 257.67C144.09 265.12 133.8 274.38 124.45 281.57C115.089 288.785 103.599 292.689 91.7799 292.67C60.9999 292.64 -0.310059 239 -0.310059 239C-0.310059 239 61.6899 187.11 88.4699 185.5C101.988 184.651 115.325 188.961 125.79 197.56C139.25 208.61 152.39 220.83 168.33 228.25C185 236 208.61 236.89 225.74 230C244.01 222.62 258.33 208.34 273.74 196.49C283.114 189.262 294.623 185.351 306.46 185.37C337.15 185.35 400.6 242.34 400.6 242.34Z" fill="#1A6237"/>
<path d="M507.2 149.51C507.2 149.51 443.2 198.07 416.41 199.71C402.876 200.597 389.51 196.307 379.02 187.71C365.07 176.26 351.38 163.43 334.62 156.18C311.35 146.12 282.22 150.75 261.62 164.85C250.71 172.31 240.41 181.56 231.07 188.75C221.71 195.968 210.22 199.876 198.4 199.86C167.62 199.86 106.32 146.16 106.32 146.16C106.32 146.16 168.32 94.27 195.09 92.67C208.613 91.8092 221.957 96.1203 232.42 104.73C245.88 115.73 259.02 127.99 274.95 135.42C291.61 143.18 315.23 144.11 332.36 137.19C350.64 129.82 364.96 115.54 380.36 103.69C389.705 96.4602 401.185 92.5352 413 92.53C443.74 92.53 507.2 149.51 507.2 149.51Z" fill="#1A6237"/>
</g>
<defs>
<clipPath id="clip0_386_115">
<rect width="507" height="293" fill="white"/>
</clipPath>
</defs>
</svg>
