<svg width="35" height="23" viewBox="0 0 35 23" fill="none" xmlns="http://www.w3.org/2000/svg">
<path d="M16.4388 15.9988C17.9915 14.9616 19.1708 13.4492 19.8023 11.6855C20.4338 9.92177 20.4839 8.00047 19.9452 6.20591C19.4065 4.41134 18.3076 2.83886 16.8112 1.72118C15.3148 0.603497 13.5004 0 11.6364 0C9.7724 0 7.95795 0.603497 6.46153 1.72118C4.96512 2.83886 3.86626 4.41134 3.32757 6.20591C2.78889 8.00047 2.839 9.92177 3.47049 11.6855C4.10198 13.4492 5.2813 14.9616 6.83392 15.9988C4.18529 16.9783 1.89849 18.7501 0.281163 21.0758C0.17575 21.1987 0.0970404 21.3423 0.050088 21.4975C0.00313569 21.6528 -0.0110221 21.8161 0.00852372 21.9772C0.0280695 22.1383 0.0808868 22.2934 0.163585 22.4327C0.246283 22.5721 0.357035 22.6924 0.48873 22.7862C0.620425 22.8799 0.770153 22.9449 0.928302 22.977C1.08645 23.0091 1.24953 23.0076 1.40706 22.9726C1.56459 22.9375 1.7131 22.8698 1.84305 22.7736C1.973 22.6774 2.08152 22.555 2.16164 22.4142C3.23102 20.8864 4.65002 19.6396 6.29899 18.7789C7.94797 17.9182 9.77855 17.469 11.6364 17.469C13.4942 17.469 15.3248 17.9182 16.9738 18.7789C18.6227 19.6396 20.0417 20.8864 21.1111 22.4142C21.1912 22.555 21.2997 22.6774 21.4297 22.7736C21.5597 22.8698 21.7082 22.9375 21.8657 22.9726C22.0232 23.0076 22.1863 23.0091 22.3444 22.977C22.5026 22.9449 22.6523 22.8799 22.784 22.7862C22.9157 22.6924 23.0265 22.5721 23.1092 22.4327C23.1919 22.2934 23.2447 22.1383 23.2642 21.9772C23.2838 21.8161 23.2696 21.6528 23.2227 21.4975C23.1757 21.3423 23.097 21.1987 22.9916 21.0758C21.3743 18.7501 19.0875 16.9783 16.4388 15.9988ZM5.27167 8.73969C5.27167 7.47372 5.64495 6.23619 6.34432 5.18358C7.04368 4.13097 8.03771 3.31056 9.20071 2.8261C10.3637 2.34163 11.6434 2.21487 12.8781 2.46185C14.1127 2.70883 15.2468 3.31845 16.1369 4.21362C17.027 5.10879 17.6332 6.24931 17.8788 7.49095C18.1244 8.73259 17.9983 10.0196 17.5166 11.1892C17.0349 12.3588 16.2191 13.3584 15.1724 14.0618C14.1257 14.7651 12.8952 15.1405 11.6364 15.1405C9.94835 15.1405 8.32946 14.4661 7.13585 13.2658C5.94224 12.0654 5.27167 10.4373 5.27167 8.73969ZM34.5059 22.6906C34.3829 22.7796 34.2434 22.8432 34.0957 22.8775C33.948 22.9119 33.795 22.9163 33.6455 22.8906C33.4961 22.8649 33.3532 22.8095 33.2253 22.7277C33.0973 22.6459 32.9869 22.5393 32.9003 22.4142C31.8301 20.8871 30.411 19.6408 28.7622 18.78C27.1134 17.9193 25.2832 17.4694 23.4255 17.4681C23.1186 17.4681 22.8243 17.3455 22.6073 17.1272C22.3902 16.909 22.2683 16.613 22.2683 16.3043C22.2683 15.9956 22.3902 15.6996 22.6073 15.4814C22.8243 15.2631 23.1186 15.1405 23.4255 15.1405C25.1136 15.1405 26.7325 14.4661 27.9261 13.2658C29.1197 12.0654 29.7902 10.4373 29.7902 8.73969C29.7902 7.04208 29.1197 5.41401 27.9261 4.21362C26.7325 3.01323 25.1136 2.33886 23.4255 2.33886C22.8443 2.34275 22.2658 2.42096 21.7042 2.57162C21.5579 2.61381 21.4048 2.62657 21.2536 2.60918C21.1024 2.59179 20.9562 2.54459 20.8231 2.47027C20.6901 2.39595 20.573 2.29598 20.4784 2.17608C20.3839 2.05618 20.3138 1.9187 20.2721 1.77152C20.1913 1.47452 20.2294 1.15751 20.378 0.888353C20.5267 0.619191 20.7743 0.419253 21.0677 0.331329C21.8367 0.123104 22.6292 0.0155358 23.4255 0.011288C25.2914 0.00453408 27.1097 0.603714 28.6097 1.7197C30.1098 2.83568 31.2116 4.40884 31.7512 6.20517C32.2908 8.00149 32.2394 9.925 31.6046 11.6896C30.9698 13.4541 29.7855 14.9655 28.228 15.9988C30.8783 16.9823 33.1687 18.7529 34.7952 21.0758C34.9688 21.3288 35.0359 21.6407 34.9817 21.9432C34.9275 22.2457 34.7564 22.5144 34.5059 22.6906Z" fill="#5C7869"/>
</svg>
