<svg width="24" height="24" viewBox="0 0 24 24" fill="none" xmlns="http://www.w3.org/2000/svg">
<path d="M19.4452 12.6188C19.0264 12.375 18.4639 12.1687 17.7577 12C18.4639 11.8313 19.0264 11.625 19.4452 11.3813C19.8285 11.1834 20.1677 10.9098 20.4422 10.577C20.7167 10.2441 20.9208 9.85908 21.0422 9.44507C21.1635 9.03106 21.1995 8.59674 21.148 8.16841C21.0965 7.74007 20.9586 7.32665 20.7427 6.95318C20.5267 6.5797 20.2372 6.25396 19.8916 5.99566C19.5461 5.73737 19.1517 5.55192 18.7324 5.45053C18.3131 5.34914 17.8775 5.33393 17.4521 5.40582C17.0267 5.4777 16.6204 5.6352 16.2577 5.86875C15.8358 6.10312 15.3764 6.4875 14.8795 7.0125C15.0858 6.31875 15.1889 5.72813 15.1889 5.25C15.1889 4.40462 14.8531 3.59387 14.2553 2.9961C13.6575 2.39832 12.8468 2.0625 12.0014 2.0625C11.156 2.0625 10.3453 2.39832 9.7475 2.9961C9.14972 3.59387 8.8139 4.40462 8.8139 5.25C8.8139 5.72813 8.91702 6.31875 9.12327 7.0125C8.6264 6.4875 8.16702 6.10312 7.74515 5.86875C7.38242 5.6352 6.97606 5.4777 6.55068 5.40582C6.1253 5.33393 5.68975 5.34914 5.27042 5.45053C4.85109 5.55192 4.4567 5.73737 4.11115 5.99566C3.7656 6.25396 3.47608 6.5797 3.26013 6.95318C3.04418 7.32665 2.90628 7.74007 2.8548 8.16841C2.80333 8.59674 2.83934 9.03106 2.96065 9.44507C3.08196 9.85908 3.28605 10.2441 3.56056 10.577C3.83507 10.9098 4.17428 11.1834 4.55765 11.3813C4.98265 11.625 5.54515 11.8313 6.24515 12C5.54515 12.1687 4.98265 12.375 4.55765 12.6188C3.95137 12.9709 3.47812 13.5132 3.21119 14.1615C2.94426 14.8098 2.89855 15.5281 3.08114 16.2051C3.26372 16.882 3.66441 17.4799 4.22116 17.9061C4.7779 18.3322 5.45963 18.563 6.16077 18.5625C6.71792 18.5627 7.26497 18.4138 7.74515 18.1312C8.16702 17.8969 8.6264 17.5125 9.12327 16.9875C8.91702 17.6812 8.8139 18.2719 8.8139 18.75C8.8139 19.5954 9.14972 20.4061 9.7475 21.0039C10.3453 21.6017 11.156 21.9375 12.0014 21.9375C12.8468 21.9375 13.6575 21.6017 14.2553 21.0039C14.8531 20.4061 15.1889 19.5954 15.1889 18.75C15.1889 18.2719 15.0858 17.6812 14.8795 16.9875C15.3764 17.5125 15.8358 17.8969 16.2577 18.1312C16.7378 18.4138 17.2849 18.5627 17.842 18.5625C18.5432 18.563 19.2249 18.3322 19.7816 17.9061C20.3384 17.4799 20.7391 16.882 20.9217 16.2051C21.1042 15.5281 21.0585 14.8098 20.7916 14.1615C20.5247 13.5132 20.0514 12.9709 19.4452 12.6188ZM9.9389 12C9.9389 11.5921 10.0599 11.1933 10.2865 10.8541C10.5131 10.515 10.8352 10.2506 11.2121 10.0945C11.589 9.93839 12.0037 9.89755 12.4038 9.97713C12.8039 10.0567 13.1714 10.2531 13.4598 10.5416C13.7483 10.83 13.9447 11.1975 14.0243 11.5976C14.1039 11.9977 14.063 12.4124 13.9069 12.7893C13.7508 13.1662 13.4864 13.4883 13.1473 13.7149C12.8081 13.9415 12.4093 14.0625 12.0014 14.0625C11.4552 14.06 10.932 13.8419 10.5457 13.4557C10.1595 13.0694 9.94137 12.5462 9.9389 12ZM16.8202 6.83438C17.2951 6.56087 17.8592 6.48722 18.3884 6.62963C18.9176 6.77204 19.3685 7.11885 19.642 7.59375C19.9155 8.06865 19.9892 8.63275 19.8468 9.16196C19.7044 9.69116 19.3576 10.1421 18.8827 10.4156C18.1889 10.8094 16.8858 11.1094 15.1045 11.2781C14.9628 10.6628 14.6395 10.1043 14.1764 9.675C15.217 8.2125 16.1264 7.2375 16.8202 6.83438ZM12.0014 3.1875C12.5476 3.18997 13.0708 3.40806 13.4571 3.79432C13.8433 4.18058 14.0614 4.70375 14.0639 5.25C14.0639 6.04688 13.6701 7.32188 12.9295 8.95312C12.325 8.76551 11.6778 8.76551 11.0733 8.95312C10.3326 7.32188 9.9389 6.04688 9.9389 5.25C9.94137 4.70375 10.1595 4.18058 10.5457 3.79432C10.932 3.40806 11.4552 3.18997 12.0014 3.1875ZM4.37015 7.59375C4.64464 7.12249 5.09388 6.77846 5.6204 6.6363C6.14692 6.49413 6.70827 6.56531 7.18265 6.83438C7.8764 7.2375 8.78577 8.2125 9.8264 9.675C9.36334 10.1043 9.03998 10.6628 8.89827 11.2781C7.11702 11.1094 5.8139 10.8094 5.12015 10.4156C4.88541 10.2798 4.67976 10.099 4.51498 9.88357C4.3502 9.66816 4.22953 9.42236 4.15986 9.16025C4.0902 8.89813 4.07291 8.62486 4.109 8.35606C4.14508 8.08725 4.23382 7.82821 4.37015 7.59375ZM7.18265 17.1656C6.70775 17.4391 6.14364 17.5128 5.61444 17.3704C5.08524 17.228 4.63428 16.8812 4.36077 16.4062C4.08727 15.9313 4.01362 15.3672 4.15603 14.838C4.29844 14.3088 4.64525 13.8579 5.12015 13.5844C5.8139 13.1906 7.11702 12.8906 8.89827 12.7219C9.03998 13.3372 9.36334 13.8957 9.8264 14.325C8.78577 15.7875 7.8764 16.7625 7.18265 17.1656ZM12.0014 20.8125C11.4552 20.81 10.932 20.5919 10.5457 20.2057C10.1595 19.8194 9.94137 19.2962 9.9389 18.75C9.9389 17.9531 10.3326 16.6781 11.0733 15.0469C11.6778 15.2345 12.325 15.2345 12.9295 15.0469C13.6701 16.6781 14.0639 17.9531 14.0639 18.75C14.0614 19.2962 13.8433 19.8194 13.4571 20.2057C13.0708 20.5919 12.5476 20.81 12.0014 20.8125ZM19.6327 16.4062C19.3582 16.8775 18.9089 17.2215 18.3824 17.3637C17.8559 17.5059 17.2945 17.4347 16.8202 17.1656C16.1264 16.7625 15.217 15.7875 14.1764 14.325C14.6395 13.8957 14.9628 13.3372 15.1045 12.7219C16.8858 12.8906 18.1889 13.1906 18.8827 13.5844C19.1174 13.7202 19.323 13.901 19.4878 14.1164C19.6526 14.3318 19.7733 14.5776 19.8429 14.8398C19.9126 15.1019 19.9299 15.3751 19.8938 15.6439C19.8577 15.9127 19.769 16.1718 19.6327 16.4062Z" fill="#5A7082"/>
</svg>
