<svg width="22" height="22" viewBox="0 0 22 22" fill="none" xmlns="http://www.w3.org/2000/svg">
<path d="M19.4134 14.025L19.4392 13.9391C20.104 12.0361 20.104 9.96392 19.4392 8.06094L19.4134 7.975C18.7862 6.24592 17.6428 4.75139 16.1379 3.69383C14.633 2.63627 12.8395 2.06678 11.0002 2.0625C9.16026 2.06431 7.36558 2.63283 5.86024 3.69072C4.35489 4.74862 3.21195 6.24454 2.58688 7.975L2.5611 8.06094C1.8963 9.96392 1.8963 12.0361 2.5611 13.9391L2.58688 14.025C3.21195 15.7555 4.35489 17.2514 5.86024 18.3093C7.36558 19.3672 9.16026 19.9357 11.0002 19.9375C12.8401 19.9357 14.6347 19.3672 16.1401 18.3093C17.6454 17.2514 18.7884 15.7555 19.4134 14.025ZM8.80875 14.4375H13.1916C12.7512 15.8045 12.0013 17.0515 11.0002 18.0812C9.99906 17.0515 9.24913 15.8045 8.80875 14.4375ZM8.44781 13.0625C8.18434 11.7001 8.18434 10.2999 8.44781 8.9375H13.5525C13.6833 9.61722 13.7495 10.3078 13.7502 11C13.7499 11.6922 13.6837 12.3828 13.5525 13.0625H8.44781ZM3.43766 11C3.43912 10.3029 3.53451 9.60914 3.72125 8.9375H7.04703C6.81787 10.303 6.81787 11.697 7.04703 13.0625H3.72125C3.53451 12.3909 3.43912 11.6971 3.43766 11ZM13.1916 7.5625H8.80875C9.24913 6.19548 9.99906 4.94854 11.0002 3.91875C12.0013 4.94854 12.7512 6.19548 13.1916 7.5625ZM14.9533 8.9375H18.2791C18.6573 10.2865 18.6573 11.7135 18.2791 13.0625H14.9533C15.1824 11.697 15.1824 10.303 14.9533 8.9375ZM17.7377 7.5625H14.6439C14.2304 6.11472 13.5256 4.76661 12.5728 3.60078C13.673 3.83834 14.7069 4.31685 15.5999 5.00189C16.493 5.68693 17.2231 6.56145 17.7377 7.5625ZM9.4275 3.60078C8.47467 4.76661 7.76991 6.11472 7.35641 7.5625H4.26266C4.77721 6.56145 5.5073 5.68693 6.40038 5.00189C7.29346 4.31685 8.3273 3.83834 9.4275 3.60078ZM4.26266 14.4375H7.35641C7.76991 15.8853 8.47467 17.2334 9.4275 18.3992C8.32663 18.1634 7.29203 17.6855 6.39871 17.0003C5.50539 16.3151 4.77574 15.4396 4.26266 14.4375ZM12.5728 18.3992C13.5256 17.2334 14.2304 15.8853 14.6439 14.4375H17.7377C17.2246 15.4396 16.4949 16.3151 15.6016 17.0003C14.7083 17.6855 13.6737 18.1634 12.5728 18.3992Z"/>
</svg>
