<svg width="50" height="50" viewBox="0 0 50 50" fill="none" xmlns="http://www.w3.org/2000/svg">
<path d="M49.8756 33.1154C49.5984 31.8094 48.9604 30.5873 48.0203 29.5619C46.8552 28.2568 45.3129 27.1877 43.303 26.2935C42.0919 25.7624 40.8297 25.3315 39.5319 25.0061L39.5653 24.9983C41.4255 24.5552 43.2023 23.8662 44.838 22.9537C46.4743 22.0272 47.7012 20.9793 48.5905 19.7488C49.7272 18.1741 50.1774 16.5193 49.9275 14.8366C49.714 13.2779 48.8473 11.8514 47.5046 10.8488C46.2282 9.87216 44.6487 9.33428 42.8108 9.25076C42.6599 9.24408 42.5065 9.24074 42.3556 9.24074C41.3801 9.24556 40.4104 9.37645 39.4763 9.62939C37.8684 10.0481 36.3199 10.7608 34.728 11.8043C33.8601 12.3774 33.0372 13.004 32.2655 13.6796C32.7936 11.8098 33.0076 10.096 32.9334 8.44562C32.8966 7.5036 32.7347 6.56894 32.451 5.6616C31.887 3.90098 30.9668 2.56242 29.6286 1.5713C28.2297 0.526738 26.7072 0 25.0869 0C24.2246 0.00646325 23.3699 0.146211 22.56 0.41315C20.6924 1.01339 19.233 2.24504 18.2212 4.07359C17.6263 5.14822 17.2639 6.35538 17.1143 7.76409C17.0014 8.91435 17.033 10.0724 17.2083 11.2163C17.328 12.0456 17.5023 12.8678 17.7302 13.6785L17.6461 13.6039C16.4734 12.5549 15.1596 11.6421 13.7352 10.8867C11.828 9.88441 10.0062 9.34987 8.16945 9.24965C7.97775 9.23963 7.7848 9.23406 7.5968 9.23406C6.62778 9.23056 5.66538 9.37787 4.75208 9.66948C3.19092 10.1604 1.86948 11.1273 1.0164 12.4027C0.163323 13.6782 -0.167722 15.182 0.0805447 16.654C0.30357 17.9613 0.894575 19.1954 1.79727 20.2388C2.75459 21.3758 3.99142 22.3346 5.57705 23.1709C7.11103 23.9662 8.75101 24.5829 10.4576 25.0061C10.1311 25.0896 9.81197 25.1787 9.49905 25.2712C7.53743 25.8547 5.89986 26.5719 4.49481 27.4639C2.99701 28.4149 1.89004 29.475 1.11207 30.7045C0.16836 32.1956 -0.177955 33.7313 0.0854912 35.2703C0.425621 37.257 1.5697 38.7837 3.49421 39.8071C4.72596 40.4584 6.13133 40.7956 7.5597 40.7826C8.17418 40.7791 8.78712 40.727 9.39145 40.6267C10.7779 40.404 12.1422 39.9419 13.5608 39.2113C15.0811 38.4126 16.4839 37.4451 17.7364 36.3315C17.2033 38.2002 16.9844 39.9207 17.0673 41.5889C17.1069 42.5281 17.2704 43.4597 17.5546 44.364C18.0864 46.0255 18.9534 47.3184 20.2039 48.3162C21.604 49.4298 23.2007 50 24.9496 50C25.3047 49.9998 25.6593 49.9771 26.0108 49.9321C27.6707 49.7249 29.1289 49.02 30.3397 47.8396C31.3515 46.8574 32.054 45.677 32.4894 44.2326C32.8673 42.9707 33.0152 41.6619 32.9272 40.3572C32.8728 39.5254 32.8035 38.845 32.6959 38.2191C32.5945 37.6122 32.456 36.9941 32.2779 36.3471C32.4201 36.4707 32.5623 36.591 32.7058 36.7102C34.2976 38.0287 35.8523 39.0042 37.4602 39.6913C39.1609 40.4185 40.7688 40.7726 42.3729 40.7726C42.509 40.7726 42.6475 40.7726 42.7836 40.7648C43.9556 40.7297 45.1048 40.4636 46.1502 39.9853C47.5113 39.3554 48.6095 38.346 49.2809 37.1078C49.9524 35.8696 50.161 34.4691 49.8756 33.1154V33.1154ZM28.6923 45.8952C27.9267 46.7683 27.0349 47.2939 25.9712 47.5022C25.6349 47.5689 25.2916 47.6033 24.9471 47.6046C23.9391 47.6046 22.9892 47.2817 22.1234 46.6436C21.2094 45.9698 20.5588 45.0489 20.1358 43.8306C19.903 43.1471 19.7631 42.4408 19.719 41.727C19.5954 40.0722 19.8427 38.3494 20.4822 36.3026C21.024 34.5915 21.7415 32.9295 22.6256 31.3381C22.9657 30.7189 23.338 30.0953 23.6979 29.4929L23.9577 29.0574C23.9997 31.8838 24.069 34.8994 24.2582 37.9663C24.2683 38.1273 24.3465 38.2788 24.4767 38.3896C24.6068 38.5003 24.7792 38.5621 24.9583 38.5621H24.9669C25.1475 38.5605 25.3204 38.4961 25.4495 38.3823C25.5786 38.2686 25.6538 38.1144 25.6596 37.9518C25.6769 37.4697 25.6942 36.9897 25.7127 36.5042C25.7536 35.4195 25.7944 34.2992 25.8265 33.1956C25.8587 32.092 25.8822 30.9795 25.9045 29.8993C25.9106 29.5864 25.9168 29.2746 25.9242 28.9606L25.9848 28.9494L26.205 29.308C26.4128 29.6477 26.628 29.9984 26.8234 30.3459C27.7672 31.9546 28.5619 33.6307 29.1994 35.3571C29.6467 36.5491 29.9717 37.7755 30.1703 39.0209C30.3498 40.1036 30.371 41.2028 30.2334 42.2905C30.0231 43.7705 29.521 44.9498 28.6923 45.8952ZM39.1349 22.6341C37.7179 23.0093 36.2705 23.2845 34.806 23.4571C33.3918 23.6329 31.9683 23.7411 30.5414 23.7812L29.8116 23.7979L29.234 23.8112C29.1957 23.6999 29.1561 23.5996 29.1165 23.4961C31.6285 22.0762 34.5165 20.4214 37.3056 18.7142C37.4566 18.624 37.5628 18.4846 37.6022 18.3254C37.6416 18.1662 37.611 17.9994 37.5168 17.86C37.4226 17.7206 37.2721 17.6195 37.097 17.5778C36.9218 17.5361 36.7355 17.557 36.5771 17.6363C33.8276 18.9726 31.1054 20.3913 28.7009 21.6642C29.8919 19.8828 31.2579 18.2012 32.7825 16.6396C34.2667 15.1429 35.7225 13.9981 37.2351 13.1428C38.4645 12.4468 39.6333 12.0003 40.8059 11.7775C41.3277 11.6752 41.8599 11.6219 42.394 11.6183C43.222 11.6093 44.0409 11.774 44.786 12.0994C46.2628 12.7475 47.0853 13.7698 47.3005 15.2242C47.4415 16.1785 47.2114 17.1173 46.5967 18.1129C45.9969 19.0784 45.1125 19.9192 43.8757 20.6842C42.5745 21.4849 41.0248 22.1241 39.1349 22.6341ZM30.294 9.69064C30.1851 11.6417 29.6644 13.6551 28.6577 16.0271C27.9048 17.7621 27.0127 19.4455 25.9886 21.0639L25.9341 21.0528L25.6756 12.0983C25.6708 11.9339 25.595 11.7777 25.4642 11.6629C25.3335 11.5481 25.1582 11.4838 24.9756 11.4836H24.9212C24.7424 11.486 24.5714 11.55 24.4435 11.6625C24.3156 11.775 24.2404 11.9274 24.2335 12.0882L24.2125 12.5337C24.1968 12.8678 24.182 13.2019 24.1679 13.5359C24.1395 14.2821 24.1061 15.1629 24.0789 16.0338C24.0541 16.7944 24.0344 17.5371 24.0195 18.2409C23.9997 19.1741 23.9824 20.0973 23.9688 20.9927C23.3442 19.9904 22.8037 19.0361 22.3213 18.0973C21.4466 16.4393 20.754 14.7083 20.2533 12.929C19.8205 11.3354 19.6349 9.91002 19.7005 8.5748C19.7574 7.30974 20.0245 6.23622 20.5168 5.28965C21.0833 4.19943 21.8476 3.42435 22.8544 2.91766C23.5107 2.58616 24.2503 2.41171 25.0028 2.41097C26.1014 2.41496 27.1605 2.78009 27.9811 3.43772C28.9025 4.17047 29.5395 5.12261 29.9279 6.34535C30.2549 7.43449 30.3786 8.56498 30.294 9.69064V9.69064ZM21.6361 22.241L12.7309 18.1953C12.5671 18.1207 12.3773 18.107 12.2024 18.1572C12.0275 18.2074 11.8815 18.3175 11.7959 18.4637L11.7637 18.5182C11.6798 18.6612 11.66 18.8277 11.7086 18.9833C11.7572 19.139 11.8703 19.2719 12.0247 19.3546C14.9844 20.947 18.0134 22.4793 20.6417 23.7934H20.6318C20.0431 23.7856 19.4333 23.7767 18.8396 23.7544C18.2682 23.7333 17.6548 23.7043 17.045 23.6431L16.9275 23.6308C15.8552 23.5195 14.747 23.3992 13.6759 23.2366C12.074 22.9955 10.506 22.5986 8.99937 22.0528C7.33954 21.4448 6.0186 20.7254 4.9611 19.8523C3.90361 18.9793 3.23819 18.0795 2.90548 17.0839C2.3489 15.4135 2.70759 14.0326 4.00132 12.8522C4.64818 12.2609 5.47686 11.89 6.53436 11.7185C6.91106 11.6571 7.29312 11.6262 7.67596 11.6261C8.65677 11.6261 9.67345 11.8232 10.7841 12.2263C12.1026 12.7052 13.3951 13.4346 14.742 14.4536C16.408 15.7208 17.9343 17.2532 19.5422 19.2755C20.2521 20.1664 20.9497 21.1352 21.6683 22.2188L21.6361 22.241ZM15.1403 26.5652C16.477 26.3982 17.8224 26.2926 19.1711 26.2489C19.5607 26.2367 19.9516 26.2278 20.3424 26.2188L12.2461 30.9083C12.0927 30.9973 11.9838 31.1367 11.9427 31.2968C11.9016 31.4569 11.9315 31.6251 12.0259 31.7657L12.0581 31.8147C12.1207 31.9082 12.209 31.9854 12.3146 32.0391C12.4201 32.0927 12.5392 32.121 12.6604 32.121C12.7796 32.121 12.8967 32.0934 13.0005 32.0408L13.7031 31.6889C14.2234 31.4291 14.7432 31.1692 15.2627 30.9094C16.0333 30.5185 16.81 30.1187 17.5335 29.7445C18.2571 29.3704 19.0177 28.9761 19.797 28.5686C20.3226 28.2924 20.8458 28.0118 21.364 27.7378L21.5359 27.6465L21.6745 27.7879C20.2583 29.9316 18.8409 31.7179 17.3455 33.2446C15.8502 34.7714 14.3586 35.9618 12.8175 36.8405C11.551 37.5632 10.35 38.022 9.14655 38.2425C8.63895 38.3392 8.12181 38.3896 7.60298 38.3928C6.79064 38.402 5.98674 38.2436 5.25299 37.9296C3.75024 37.2826 2.91414 36.2525 2.69893 34.7792C2.55298 33.7881 2.81024 32.807 3.48308 31.7791C4.12995 30.7913 5.08478 29.9361 6.40325 29.1643C7.72172 28.3926 9.27766 27.7902 11.1638 27.3002C12.4686 26.9717 13.7973 26.7261 15.1403 26.5652V26.5652ZM28.4387 27.5552C31.1598 28.8258 34.0713 30.1655 37.0681 31.4406C37.2322 31.5196 37.4243 31.5367 37.6023 31.4881C37.7804 31.4396 37.9297 31.3293 38.0174 31.1817C38.1052 31.034 38.1242 30.861 38.0702 30.7007C38.0163 30.5404 37.8939 30.406 37.7298 30.327C35.0459 28.8648 32.3546 27.4939 29.8054 26.2166C30.1851 26.2244 30.5661 26.2333 30.9433 26.2456C32.2084 26.2856 33.4704 26.3837 34.7243 26.5396C37.4911 26.8814 39.7026 27.4171 41.6828 28.2245C43.1868 28.8369 44.3816 29.5552 45.3364 30.4183C46.2912 31.2813 46.8664 32.1444 47.1484 33.1032C47.5911 34.6144 47.272 35.8872 46.1713 37.0008C45.5083 37.669 44.6487 38.091 43.5442 38.2848C43.141 38.3576 42.731 38.3949 42.3197 38.3962C41.3594 38.3842 40.4093 38.2171 39.5146 37.9028C38.1417 37.4463 36.7936 36.7169 35.3935 35.6756C33.9575 34.6043 32.5809 33.2847 31.1882 31.641C30.1355 30.3903 29.1658 29.0848 28.2841 27.7311L28.4387 27.5552Z" fill="#196238"/>
</svg>
