<svg width="393" height="438" viewBox="0 0 393 438" fill="none" xmlns="http://www.w3.org/2000/svg">
<g clip-path="url(#clip0_386_119)">
<path d="M288.54 218.71C356 206.59 386.4 174.8 391.72 144.64C394.006 132.503 391.868 119.949 385.693 109.253C379.518 98.5572 369.714 90.4282 358.06 86.34C329.29 75.87 286.56 86.34 242.32 138.67C265.56 74.17 253.22 31.95 229.76 12.27C220.394 4.22196 208.454 -0.203293 196.105 -0.203293C183.756 -0.203293 171.816 4.22196 162.45 12.27C139 32 126.65 74.17 149.89 138.66C105.65 86.29 62.89 75.87 34.15 86.34C22.4971 90.43 12.6949 98.5592 6.51991 109.254C0.344917 119.95 -1.79428 132.503 0.49 144.64C5.81 174.8 36.2 206.64 103.67 218.71C36.2 230.84 5.81 262.63 0.49 292.79C-1.7938 304.925 0.34575 317.477 6.52083 328.171C12.6959 338.865 22.4979 346.992 34.15 351.08C62.94 361.57 105.66 351.13 149.89 298.76C126.65 363.26 138.99 405.47 162.45 425.16C171.817 433.206 183.757 437.63 196.105 437.63C208.453 437.63 220.393 433.206 229.76 425.16C253.22 405.47 265.56 363.26 242.32 298.76C286.56 351.13 329.32 361.57 358.06 351.08C369.713 346.994 379.517 338.867 385.692 328.173C391.867 317.479 394.006 304.926 391.72 292.79C386.4 262.63 356 230.84 288.54 218.71ZM354.54 95.93C363.924 99.2208 371.817 105.766 376.789 114.378C381.761 122.989 383.482 133.098 381.64 142.87C375.64 177.03 331.58 213.52 226.09 213.61C225.476 209.831 224.156 206.201 222.2 202.91C229.97 198.08 237.73 193.23 245.44 188.29L270.09 172.47C278.21 167.04 286.43 161.76 294.47 156.2C285.84 160.79 277.37 165.66 268.82 170.38L243.47 185C235.47 189.62 227.503 194.307 219.57 199.06C218.379 197.615 217.064 196.276 215.64 195.06C268.42 103.93 322 84.06 354.57 95.93H354.54ZM169 20.09C176.54 13.6098 186.153 10.0466 196.095 10.0466C206.037 10.0466 215.65 13.6098 223.19 20.09C249.74 42.36 259.33 98.65 206.85 189.87C203.986 188.764 200.973 188.09 197.91 187.87C197.83 178.67 197.71 169.47 197.49 160.27L196.81 131C196.4 121.24 196.16 111.47 195.59 101.71C195.03 111.47 194.79 121.24 194.38 131L193.68 160.28C193.47 169.49 193.35 178.69 193.27 187.89C190.515 188.103 187.8 188.685 185.2 189.62C132.9 98.54 142.49 42.34 169 20.09ZM10.54 142.87C8.69781 133.098 10.4187 122.989 15.3907 114.378C20.3626 105.766 28.2562 99.2208 37.64 95.93C70.13 84.09 123.58 103.86 176.28 194.6C173.96 196.471 171.923 198.667 170.23 201.12C161.63 196.587 152.993 192.11 144.32 187.69L118.2 174.45C109.4 170.19 100.69 165.78 91.82 161.66C100.15 166.77 108.64 171.66 117.04 176.59L142.51 191.06C150.93 195.84 159.387 200.55 167.88 205.19C166.59 207.85 165.691 210.683 165.21 213.6C60.37 213.31 16.55 176.93 10.54 142.87ZM37.64 341.5C28.2587 338.206 20.3675 331.66 15.3962 323.049C10.4248 314.438 8.70206 304.332 10.54 294.56C16.54 260.49 60.37 224.11 165.23 223.83C165.63 226.258 166.321 228.628 167.29 230.89C159.29 235.85 151.33 240.85 143.41 245.89L118.75 261.7C110.63 267.13 102.41 272.41 94.37 277.97C103 273.37 111.46 268.51 120.02 263.78L145.4 249.15C153.46 244.483 161.487 239.76 169.48 234.98C171.313 237.923 173.629 240.537 176.33 242.71C123.62 333.55 70.16 353.31 37.64 341.5ZM223.2 417.34C215.66 423.82 206.047 427.383 196.105 427.383C186.163 427.383 176.55 423.82 169.01 417.34C142.48 395.08 132.89 338.85 185.26 247.72C187.838 248.647 190.529 249.226 193.26 249.44C193.34 258.76 193.46 268.08 193.67 277.44L194.37 306.72C194.78 316.48 195.03 326.25 195.59 336.01C196.16 326.25 196.4 316.48 196.82 306.72L197.51 277.44C197.73 268.12 197.85 258.79 197.93 249.44C200.97 249.222 203.96 248.548 206.8 247.44C259.35 338.74 249.76 395.06 223.2 417.34ZM354.57 341.49C321.99 353.37 268.39 333.49 215.57 242.26C218.216 240.018 220.468 237.347 222.23 234.36C230.02 238.45 237.83 242.52 245.68 246.51L271.81 259.76C280.61 264.01 289.32 268.42 298.19 272.54C289.86 267.42 281.37 262.54 272.97 257.6L247.5 243.13C239.8 238.757 232.063 234.45 224.29 230.21C225.123 228.153 225.723 226.01 226.08 223.82C331.59 223.9 375.63 260.39 381.65 294.56C383.491 304.328 381.771 314.432 376.804 323.041C371.836 331.651 363.948 338.196 354.57 341.49V341.49Z" fill="#1A6237"/>
</g>
<defs>
<clipPath id="clip0_386_119">
<rect width="393" height="438" fill="white"/>
</clipPath>
</defs>
</svg>
