<svg width="27" height="27" viewBox="0 0 27 27" fill="none" xmlns="http://www.w3.org/2000/svg">
<path d="M27 12.144V24.8091C26.999 25.2044 26.8888 25.5923 26.681 25.9319C26.4732 26.2716 26.1754 26.5506 25.8188 26.7397C25.4917 26.9152 25.1234 27.0049 24.75 26.9998H18C17.7016 26.9998 17.4155 26.8844 17.2045 26.679C16.9935 26.4736 16.875 26.1949 16.875 25.9044V19.3323C16.875 19.0418 16.7565 18.7632 16.5455 18.5578C16.3345 18.3524 16.0484 18.237 15.75 18.237H11.25C10.9516 18.237 10.6655 18.3524 10.4545 18.5578C10.2435 18.7632 10.125 19.0418 10.125 19.3323V25.9044C10.125 26.1949 10.0065 26.4736 9.79551 26.679C9.58453 26.8844 9.29839 26.9998 9.00002 26.9998H2.25003C1.93084 27.001 1.6151 26.9356 1.32403 26.8081C1.03296 26.6805 0.773307 26.4938 0.562527 26.2604C0.196756 25.8397 -0.00271551 25.3056 2.79262e-05 24.7543V12.144C0.000127131 11.8401 0.0651916 11.5395 0.191084 11.2613C0.316976 10.9832 0.50094 10.7336 0.731277 10.5284L11.9813 0.574365C12.396 0.204901 12.9378 0 13.5 0C14.0622 0 14.604 0.204901 15.0188 0.574365L26.2688 10.5284C26.4991 10.7336 26.6831 10.9832 26.8089 11.2613C26.9348 11.5395 26.9999 11.8401 27 12.144Z" />
</svg>
