<svg width="24" height="24" viewBox="0 0 24 24" fill="none" xmlns="http://www.w3.org/2000/svg">
<path d="M19.5 21.0002H4.5C4.10218 21.0002 3.72064 20.8422 3.43934 20.5609C3.15804 20.2796 3 19.898 3 19.5002V10.8283C3.00007 10.6202 3.04344 10.4144 3.12737 10.2239C3.2113 10.0335 3.33394 9.86257 3.4875 9.72208L10.9875 2.90646C11.264 2.65348 11.6252 2.51318 12 2.51318C12.3748 2.51318 12.736 2.65348 13.0125 2.90646L20.5125 9.72208C20.6661 9.86257 20.7887 10.0335 20.8726 10.2239C20.9566 10.4144 20.9999 10.6202 21 10.8283V19.5002C21 19.898 20.842 20.2796 20.5607 20.5609C20.2794 20.8422 19.8978 21.0002 19.5 21.0002ZM12 4.01271L4.5 10.8283V19.5002H19.5V10.8283L12 4.01271Z" fill="#5A7082"/>
</svg>
