<svg width="26" height="27" viewBox="0 0 26 27" fill="none" xmlns="http://www.w3.org/2000/svg">
<path d="M12.9892 7.99979C13.7802 7.99979 14.5535 7.7652 15.2112 7.32569C15.8689 6.88617 16.3815 6.26148 16.6842 5.53059C16.987 4.79971 17.0662 3.99546 16.9118 3.21956C16.7575 2.44365 16.3766 1.73094 15.8173 1.17154C15.2579 0.612149 14.5453 0.231195 13.7694 0.0768587C12.9936 -0.0774782 12.1895 0.00173308 11.4586 0.304476C10.7278 0.607218 10.1032 1.11989 9.66371 1.77767C9.22424 2.43545 8.98967 3.20879 8.98967 3.9999C8.99297 5.05972 9.4154 6.0752 10.1647 6.82461C10.9141 7.57402 11.9295 7.9965 12.9892 7.99979ZM12.9892 1.99995C13.3847 1.99995 13.7713 2.11724 14.1002 2.337C14.429 2.55676 14.6854 2.86911 14.8367 3.23455C14.9881 3.59999 15.0277 4.00212 14.9505 4.39007C14.8733 4.77802 14.6829 5.13438 14.4032 5.41407C14.1236 5.69377 13.7672 5.88425 13.3793 5.96142C12.9914 6.03858 12.5893 5.99898 12.2239 5.84761C11.8585 5.69624 11.5462 5.4399 11.3264 5.11101C11.1067 4.78212 10.9894 4.39545 10.9894 3.9999C10.9894 3.46948 11.2001 2.96078 11.5751 2.58572C11.9502 2.21066 12.4588 1.99995 12.9892 1.99995ZM25.8626 14.5121C25.7727 14.6605 25.6461 14.7832 25.4951 14.8686C25.3441 14.9539 25.1737 14.9991 25.0002 14.9996C24.8207 14.9968 24.6446 14.9496 24.4878 14.8621C24.4378 14.8246 20.1008 12.2872 14.0016 12.0247V16.6246L21.7506 25.3368C21.8377 25.4353 21.9045 25.5499 21.9472 25.6742C21.99 25.7985 22.0078 25.93 21.9997 26.0612C21.9915 26.1924 21.9576 26.3207 21.8999 26.4388C21.8421 26.5568 21.7617 26.6624 21.6631 26.7493C21.4796 26.9097 21.2444 26.9984 21.0007 26.9993C20.8589 26.9994 20.7187 26.9694 20.5894 26.9112C20.4602 26.853 20.3447 26.768 20.2508 26.6618L13.0017 18.4995L5.75257 26.6618C5.57689 26.8607 5.32939 26.9817 5.06453 26.9981C4.79966 27.0145 4.53913 26.925 4.34025 26.7493C4.14136 26.5736 4.02041 26.3261 4.004 26.0612C3.98759 25.7963 4.07707 25.5357 4.25276 25.3368L12.0018 16.6246V12.0247C5.87756 12.2872 1.56559 14.8246 1.51559 14.8621C1.40234 14.9294 1.27694 14.9737 1.14656 14.9926C1.01618 15.0114 0.883363 15.0044 0.755699 14.9719C0.497868 14.9062 0.276668 14.7409 0.140762 14.5121C0.00485486 14.2834 -0.0346265 14.01 0.0310031 13.7522C0.0966328 13.4943 0.261997 13.2731 0.490718 13.1372C0.703192 13.0122 5.80257 9.99974 13.0017 9.99974C20.2008 9.99974 25.3002 13.0122 25.5126 13.1372C25.7395 13.2748 25.9033 13.4959 25.9687 13.7531C26.0342 14.0102 25.9961 14.2828 25.8626 14.5121Z" fill="#00622D"/>
</svg>
