<svg width="35" height="35" viewBox="0 0 35 35" fill="none" xmlns="http://www.w3.org/2000/svg">
<path d="M22.2034 27.7539C20.3192 28.9075 18.151 29.5134 15.9417 29.5039H15.4905C13.3167 29.4219 11.1019 28.793 8.92803 27.6172L22.6546 13.9043C22.829 13.6918 22.9181 13.422 22.9046 13.1474C22.8912 12.8728 22.776 12.6131 22.5816 12.4187C22.3872 12.2243 22.1275 12.1091 21.8529 12.0957C21.5783 12.0822 21.3085 12.1713 21.096 12.3457L7.38311 26.0723C6.20732 23.8985 5.57842 21.6836 5.49639 19.5098C5.40223 17.1482 6.01129 14.8119 7.24639 12.7969C10.8147 6.90432 19.1683 3.75979 29.5999 4.37502C29.8656 4.39407 30.1154 4.50821 30.3038 4.69654C30.4921 4.88487 30.6062 5.13476 30.6253 5.40041C31.2405 15.8321 28.096 24.1856 22.2034 27.7539ZM7.80693 26.8106C7.65654 26.5645 7.51982 26.3184 7.38311 26.0723L4.68975 28.752C4.48436 28.9593 4.36914 29.2394 4.36914 29.5313C4.36914 29.8231 4.48436 30.1032 4.68975 30.3106C4.89881 30.5127 5.17824 30.6257 5.46904 30.6257C5.75985 30.6257 6.03928 30.5127 6.24834 30.3106L8.92803 27.6172L8.18975 27.1934C8.03614 27.0947 7.90558 26.9642 7.80693 26.8106Z" fill="#00622D"/>
</svg>
