<svg width="22" height="22" viewBox="0 0 22 22" fill="none" xmlns="http://www.w3.org/2000/svg">
<path d="M19.3612 7.10716C19.3617 7.695 19.2458 8.27712 19.0201 8.81992C18.7945 9.36272 18.4635 9.85544 18.0464 10.2697L15.6144 12.7017C14.7764 13.5387 13.6405 14.0089 12.4562 14.0089C11.2718 14.0089 10.1359 13.5387 9.29796 12.7017C9.22894 12.6392 9.17335 12.5632 9.13456 12.4786C9.09577 12.3939 9.07458 12.3022 9.07229 12.2091C9.07 12.116 9.08664 12.0234 9.12122 11.937C9.1558 11.8505 9.20759 11.7719 9.27344 11.7061C9.3393 11.6402 9.41785 11.5884 9.50432 11.5539C9.5908 11.5193 9.6834 11.5026 9.7765 11.5049C9.86961 11.5072 9.96127 11.5284 10.0459 11.5672C10.1306 11.606 10.2065 11.6616 10.2691 11.7306C10.8503 12.3084 11.6366 12.6327 12.4562 12.6327C13.2757 12.6327 14.062 12.3084 14.6433 11.7306L17.0753 9.29856C17.3727 9.01364 17.6102 8.67221 17.7739 8.29429C17.9376 7.91636 18.0242 7.50956 18.0286 7.09773C18.033 6.68589 17.9552 6.27733 17.7996 5.89598C17.644 5.51464 17.4139 5.16819 17.1227 4.87697C16.8315 4.58574 16.485 4.3556 16.1037 4.20003C15.7223 4.04446 15.3138 3.96659 14.9019 3.97101C14.4901 3.97542 14.0833 4.06202 13.7054 4.22572C13.3274 4.38943 12.986 4.62694 12.7011 4.92434L10.9995 6.62591C10.8687 6.7444 10.6974 6.80807 10.521 6.80373C10.3445 6.79938 10.1766 6.72736 10.0518 6.60257C9.92697 6.47778 9.85495 6.30978 9.85061 6.13336C9.84626 5.95693 9.90993 5.78559 10.0284 5.65481L11.73 3.95325C12.356 3.33191 13.1517 2.90933 14.017 2.73854C14.8824 2.56775 15.7789 2.65637 16.5941 2.99328C17.4093 3.33018 18.1068 3.90035 18.5991 4.63224C19.0914 5.36413 19.3565 6.22512 19.3612 7.10716ZM10.9995 15.3743L9.29796 17.0759C8.71376 17.6356 7.93356 17.9442 7.12457 17.9355C6.31559 17.9268 5.54218 17.6016 4.97011 17.0295C4.39804 16.4575 4.07282 15.6841 4.06415 14.8751C4.05548 14.0661 4.36405 13.2859 4.92374 12.7017L7.35577 10.2697C7.93703 9.69187 8.72331 9.36756 9.54288 9.36756C10.3625 9.36756 11.1487 9.69187 11.73 10.2697C11.8608 10.3882 12.0321 10.4518 12.2085 10.4475C12.385 10.4431 12.553 10.3711 12.6777 10.2463C12.8025 10.1215 12.8746 9.95353 12.8789 9.77711C12.8832 9.60068 12.8196 9.42934 12.7011 9.29856C11.8632 8.46154 10.7272 7.99138 9.54288 7.99138C8.35852 7.99138 7.22259 8.46154 6.38468 9.29856L3.95264 11.7306C3.51542 12.1402 3.16502 12.6335 2.92229 13.1813C2.67955 13.729 2.54943 14.3199 2.53966 14.919C2.52989 15.518 2.64067 16.1129 2.86542 16.6682C3.09017 17.2236 3.42429 17.7281 3.84793 18.1517C4.27156 18.5753 4.77606 18.9095 5.33141 19.1342C5.88677 19.359 6.48165 19.4698 7.08068 19.46C7.67971 19.4502 8.27066 19.3201 8.81839 19.0774C9.36612 18.8346 9.85946 18.4842 10.2691 18.047L11.9706 16.3454C12.0891 16.2147 12.1528 16.0433 12.1484 15.8669C12.1441 15.6905 12.0721 15.5225 11.9473 15.3977C11.8225 15.2729 11.6545 15.2009 11.4781 15.1965C11.3016 15.1922 11.1303 15.2558 10.9995 15.3743Z"/>
</svg>
