<svg width="19" height="18" viewBox="0 0 19 18" fill="none" xmlns="http://www.w3.org/2000/svg">
<circle cx="9.00586" cy="9" r="9" fill="#163045" fill-opacity="0.8"/>
<path d="M12.7559 6.75H11.0684V5.4375C11.0684 4.89049 10.8511 4.36589 10.4643 3.97909C10.0775 3.5923 9.55287 3.375 9.00586 3.375C8.45885 3.375 7.93425 3.5923 7.54745 3.97909C7.16066 4.36589 6.94336 4.89049 6.94336 5.4375V6.75H5.25586C5.05695 6.75 4.86618 6.82902 4.72553 6.96967C4.58488 7.11032 4.50586 7.30109 4.50586 7.5V12.75C4.50586 12.9489 4.58488 13.1397 4.72553 13.2803C4.86618 13.421 5.05695 13.5 5.25586 13.5H12.7559C12.9548 13.5 13.1455 13.421 13.2862 13.2803C13.4268 13.1397 13.5059 12.9489 13.5059 12.75V7.5C13.5059 7.30109 13.4268 7.11032 13.2862 6.96967C13.1455 6.82902 12.9548 6.75 12.7559 6.75ZM7.69336 5.4375C7.69336 5.0894 7.83164 4.75556 8.07778 4.50942C8.32392 4.26328 8.65776 4.125 9.00586 4.125C9.35396 4.125 9.6878 4.26328 9.93394 4.50942C10.1801 4.75556 10.3184 5.0894 10.3184 5.4375V6.75H7.69336V5.4375ZM12.7559 12.75H5.25586V7.5H12.7559V12.75ZM9.56836 10.125C9.56836 10.2363 9.53537 10.345 9.47356 10.4375C9.41175 10.53 9.3239 10.6021 9.22112 10.6447C9.11834 10.6873 9.00524 10.6984 8.89612 10.6767C8.78701 10.655 8.68678 10.6014 8.60811 10.5227C8.52944 10.4441 8.47587 10.3439 8.45417 10.2347C8.43246 10.1256 8.4436 10.0125 8.48618 9.90974C8.52875 9.80696 8.60085 9.71911 8.69335 9.6573C8.78585 9.59549 8.89461 9.5625 9.00586 9.5625C9.15504 9.5625 9.29812 9.62176 9.40361 9.72725C9.5091 9.83274 9.56836 9.97582 9.56836 10.125Z" fill="white"/>
</svg>
