<svg width='24' height='24' viewBox='0 0 24 24' xmlns='http://www.w3.org/2000/svg' xmlns:xlink='http://www.w3.org/1999/xlink'><rect width='24' height='24' stroke='none' fill='#000000' opacity='0'/>


<g transform="matrix(1.43 0 0 1.43 12 12)" >
<g style="" >
<g transform="matrix(1 0 0 1 -2 0)" >
<path style="stroke: none; stroke-width: 1; stroke-dasharray: none; stroke-linecap: butt; stroke-dashoffset: 0; stroke-linejoin: miter; stroke-miterlimit: 4; fill: #5C7869; fill-rule: nonzero; opacity: 1;" transform=" translate(-5, -7)" d="M 9.5 12.5 C 9.5 12.7652 9.39464 13.0196 9.20711 13.2071 C 9.01957 13.3946 8.76522 13.5 8.5 13.5 L 1.5 13.5 C 1.23478 13.5 0.98043 13.3946 0.792893 13.2071 C 0.605357 13.0196 0.5 12.7652 0.5 12.5 L 0.5 1.5 C 0.5 1.23478 0.605357 0.98043 0.792893 0.792893 C 0.98043 0.605357 1.23478 0.5 1.5 0.5 L 8.5 0.5 C 8.76522 0.5 9.01957 0.605357 9.20711 0.792893 C 9.39464 0.98043 9.5 1.23478 9.5 1.5 L 9.5 12.5 Z" stroke-linecap="round" />
</g>
<g transform="matrix(1 0 0 1 -2 0)" >
<path style="stroke: #00622D; stroke-width: 1; stroke-dasharray: none; stroke-linecap: round; stroke-dashoffset: 0; stroke-linejoin: round; stroke-miterlimit: 4; fill: none; fill-rule: nonzero; opacity: 1;" transform=" translate(-5, -7)" d="M 9.5 10.5 L 9.5 12.5 C 9.5 12.7652 9.39464 13.0196 9.20711 13.2071 C 9.01957 13.3946 8.76522 13.5 8.5 13.5 L 1.5 13.5 C 1.23478 13.5 0.98043 13.3946 0.792893 13.2071 C 0.605357 13.0196 0.5 12.7652 0.5 12.5 L 0.5 1.5 C 0.5 1.23478 0.605357 0.98043 0.792893 0.792893 C 0.98043 0.605357 1.23478 0.5 1.5 0.5 L 8.5 0.5 C 8.76522 0.5 9.01957 0.605357 9.20711 0.792893 C 9.39464 0.98043 9.5 1.23478 9.5 1.5 L 9.5 3.5" stroke-linecap="round" />
</g>
<g transform="matrix(1 0 0 1 3 0)" >
<path style="stroke: #00622D; stroke-width: 1; stroke-dasharray: none; stroke-linecap: round; stroke-dashoffset: 0; stroke-linejoin: round; stroke-miterlimit: 4; fill: none; fill-rule: nonzero; opacity: 1;" transform=" translate(-10, -7)" d="M 6.5 7 L 13.5 7" stroke-linecap="round" />
</g>
<g transform="matrix(1 0 0 1 5.5 0)" >
<path style="stroke: #00622D; stroke-width: 1; stroke-dasharray: none; stroke-linecap: round; stroke-dashoffset: 0; stroke-linejoin: round; stroke-miterlimit: 4; fill: none; fill-rule: nonzero; opacity: 1;" transform=" translate(-12.5, -7)" d="M 11.5 5 L 13.5 7 L 11.5 9" stroke-linecap="round" />
</g>
</g>
</g>
</svg>