<svg width="22" height="22" viewBox="0 0 22 22" fill="none" xmlns="http://www.w3.org/2000/svg">
<path d="M11.0078 5.5C10.3279 5.5 9.66333 5.70161 9.09804 6.07932C8.53275 6.45704 8.09215 6.99391 7.83198 7.62203C7.5718 8.25015 7.50373 8.94131 7.63636 9.60812C7.769 10.2749 8.09639 10.8874 8.57713 11.3682C9.05788 11.8489 9.67038 12.1763 10.3372 12.3089C11.004 12.4416 11.6952 12.3735 12.3233 12.1133C12.9514 11.8532 13.4883 11.4126 13.866 10.8473C14.2437 10.282 14.4453 9.61737 14.4453 8.9375C14.443 8.02652 14.0802 7.15349 13.436 6.50933C12.7918 5.86516 11.9188 5.50227 11.0078 5.5ZM11.0078 11C10.5999 11 10.2011 10.879 9.86195 10.6524C9.52277 10.4258 9.25842 10.1037 9.10231 9.72678C8.94621 9.34991 8.90536 8.93521 8.98494 8.53513C9.06452 8.13504 9.26096 7.76754 9.54941 7.47909C9.83785 7.19065 10.2054 6.99421 10.6054 6.91463C11.0055 6.83505 11.4202 6.87589 11.7971 7.032C12.174 7.1881 12.4961 7.45246 12.7227 7.79164C12.9493 8.13081 13.0703 8.52958 13.0703 8.9375C13.0681 9.48381 12.85 10.0071 12.4637 10.3934C12.0774 10.7797 11.5541 10.9977 11.0078 11ZM11.0078 1.375C9.00281 1.37727 7.08058 2.17477 5.66283 3.59252C4.24508 5.01027 3.44759 6.9325 3.44531 8.9375C3.44531 11.6359 4.69141 14.4977 7.05469 17.2047C8.11701 18.4309 9.31001 19.5374 10.6125 20.5047C10.7296 20.5827 10.8671 20.6243 11.0078 20.6243C11.1485 20.6243 11.286 20.5827 11.4031 20.5047C12.7094 19.5389 13.9054 18.4322 14.9695 17.2047C17.3242 14.4977 18.5703 11.6359 18.5703 8.9375C18.568 6.9325 17.7705 5.01027 16.3528 3.59252C14.935 2.17477 13.0128 1.37727 11.0078 1.375ZM11.0078 19.0781C9.58984 17.9609 4.82031 13.8531 4.82031 8.9375C4.82031 7.29647 5.47221 5.72266 6.63259 4.56228C7.79297 3.4019 9.36679 2.75 11.0078 2.75C12.6488 2.75 14.2227 3.4019 15.383 4.56228C16.5434 5.72266 17.1953 7.29647 17.1953 8.9375C17.1953 13.8531 12.4258 17.9609 11.0078 19.0781Z"/>
</svg>
