<svg width="31" height="25" viewBox="0 0 31 25" fill="none" xmlns="http://www.w3.org/2000/svg">
<path d="M31 12.5C31 13.0235 30.804 13.5255 30.4552 13.8956C30.1064 14.2657 29.6333 14.4737 29.14 14.4737H1.86C1.3667 14.4737 0.893599 14.2657 0.544781 13.8956C0.195964 13.5255 0 13.0235 0 12.5C0 11.9765 0.195964 11.4745 0.544781 11.1044C0.893599 10.7343 1.3667 10.5263 1.86 10.5263H29.14C29.6333 10.5263 30.1064 10.7343 30.4552 11.1044C30.804 11.4745 31 11.9765 31 12.5ZM1.86 3.94737H29.14C29.6333 3.94737 30.1064 3.73943 30.4552 3.36929C30.804 2.99915 31 2.49714 31 1.97368C31 1.45023 30.804 0.948216 30.4552 0.578078C30.1064 0.207941 29.6333 0 29.14 0H1.86C1.3667 0 0.893599 0.207941 0.544781 0.578078C0.195964 0.948216 0 1.45023 0 1.97368C0 2.49714 0.195964 2.99915 0.544781 3.36929C0.893599 3.73943 1.3667 3.94737 1.86 3.94737ZM29.14 21.0526H1.86C1.3667 21.0526 0.893599 21.2606 0.544781 21.6307C0.195964 22.0008 0 22.5029 0 23.0263C0 23.5498 0.195964 24.0518 0.544781 24.4219C0.893599 24.7921 1.3667 25 1.86 25H29.14C29.6333 25 30.1064 24.7921 30.4552 24.4219C30.804 24.0518 31 23.5498 31 23.0263C31 22.5029 30.804 22.0008 30.4552 21.6307C30.1064 21.2606 29.6333 21.0526 29.14 21.0526Z" fill="#5C7869"/>
</svg>
