<svg width="24" height="24" viewBox="0 0 24 24" fill="none" xmlns="http://www.w3.org/2000/svg">
<g clip-path="url(#clip0_2340_2356)">
<path d="M15.3766 7.5C15.8958 7.5 16.4033 7.34605 16.835 7.05761C17.2667 6.76917 17.6031 6.3592 17.8018 5.87955C18.0005 5.39989 18.0525 4.87209 17.9512 4.36289C17.8499 3.85369 17.5999 3.38596 17.2328 3.01885C16.8656 2.65173 16.3979 2.40173 15.8887 2.30044C15.3795 2.19915 14.8517 2.25114 14.3721 2.44982C13.8924 2.6485 13.4824 2.98495 13.194 3.41663C12.9056 3.84831 12.7516 4.35583 12.7516 4.875C12.7541 5.57043 13.0314 6.23668 13.5232 6.72843C14.0149 7.22018 14.6812 7.49753 15.3766 7.5ZM15.3766 3.75C15.5991 3.75 15.8166 3.81598 16.0016 3.9396C16.1866 4.06321 16.3308 4.23892 16.416 4.44448C16.5011 4.65005 16.5234 4.87625 16.48 5.09448C16.4366 5.31271 16.3294 5.51316 16.1721 5.6705C16.0148 5.82783 15.8143 5.93498 15.5961 5.97838C15.3779 6.02179 15.1517 5.99951 14.9461 5.91437C14.7405 5.82922 14.5648 5.68502 14.4412 5.50002C14.3176 5.31501 14.2516 5.09751 14.2516 4.875C14.2516 4.57663 14.3701 4.29048 14.5811 4.07951C14.7921 3.86853 15.0782 3.75 15.3766 3.75ZM23.8985 18.3656L18.5454 9.32813C18.4112 9.10486 18.2215 8.92012 17.9948 8.79186C17.7681 8.66361 17.5121 8.5962 17.2516 8.5962C16.9911 8.5962 16.7351 8.66361 16.5084 8.79186C16.2817 8.92012 16.092 9.10486 15.9579 9.32813L13.511 13.4625L9.54535 6.72188C9.41301 6.49631 9.22399 6.30927 8.99705 6.1793C8.77011 6.04934 8.51313 5.98096 8.25161 5.98096C7.99008 5.98096 7.7331 6.04934 7.50616 6.1793C7.27922 6.30927 7.0902 6.49631 6.95785 6.72188L0.10473 18.3656C0.0361897 18.4804 0 18.6116 0 18.7453C0 18.879 0.0361897 19.0102 0.10473 19.125C0.168833 19.2399 0.262763 19.3354 0.376614 19.4014C0.490464 19.4674 0.620015 19.5015 0.751605 19.5H23.2516C23.3842 19.5002 23.5146 19.4657 23.6297 19.4C23.7448 19.3342 23.8407 19.2394 23.9079 19.125C23.9713 19.0082 24.0037 18.877 24.0021 18.7441C24.0005 18.6112 23.9648 18.4809 23.8985 18.3656ZM8.25161 7.48125L10.4735 11.25H6.02973L8.25161 7.48125ZM2.0641 18L5.14848 12.75H11.3547L12.8641 15.3188L14.4391 18H2.0641ZM16.1829 18L14.3829 14.9438L17.2516 10.0969L21.9391 18H16.1829Z" fill="#5A7082"/>
</g>
<defs>
<clipPath id="clip0_2340_2356">
<rect width="24" height="24" fill="white"/>
</clipPath>
</defs>
</svg>
