<svg width="15" height="18" viewBox="0 0 15 18" fill="none" xmlns="http://www.w3.org/2000/svg">
<path d="M1.7061 0.883467C1.58812 0.757461 1.4265 0.683641 1.25586 0.677821C1.08522 0.672001 0.919133 0.734646 0.793185 0.852333C0.667237 0.97002 0.591447 1.13339 0.582053 1.30743C0.57266 1.48148 0.63041 1.65236 0.74293 1.78346L2.11422 3.32511C1.54094 4.34146 1.23973 5.49393 1.24084 6.66675V7.33342C1.24084 10.1917 0.661306 11.8084 0.179722 12.6584C0.0632526 12.8609 0.00126037 13.0913 1.90164e-05 13.3262C-0.00122233 13.561 0.0583313 13.7921 0.172653 13.9959C0.286974 14.1997 0.452006 14.3691 0.651048 14.4869C0.850089 14.6047 1.07608 14.6667 1.30614 14.6667H4.48949C4.48949 15.5507 4.83348 16.3986 5.44578 17.0237C6.05809 17.6488 6.88855 18 7.75447 18C8.6204 18 9.45086 17.6488 10.0632 17.0237C10.6755 16.3986 11.0195 15.5507 11.0195 14.6667H12.2112L13.8028 16.45C13.864 16.5183 13.9384 16.5728 14.0213 16.6101C14.1042 16.6474 14.1938 16.6666 14.2844 16.6667C14.4473 16.665 14.604 16.6028 14.7252 16.4917C14.7894 16.4332 14.8415 16.3622 14.8784 16.2828C14.9152 16.2035 14.9362 16.1174 14.94 16.0296C14.9438 15.9419 14.9304 15.8542 14.9005 15.7719C14.8706 15.6895 14.8249 15.6141 14.766 15.55L1.7061 0.883467ZM7.75447 16.6667C7.23558 16.6645 6.73855 16.4531 6.37163 16.0785C6.00472 15.7039 5.79763 15.1964 5.79548 14.6667H9.71346C9.71131 15.1964 9.50423 15.7039 9.13731 16.0785C8.77039 16.4531 8.27337 16.6645 7.75447 16.6667ZM1.30614 13.3334C1.86935 12.3417 2.54683 10.4917 2.54683 7.33342V6.66675C2.54437 5.87372 2.71736 5.09035 3.0529 4.37511L11.0276 13.3334H1.30614ZM4.29359 1.78346C4.20714 1.62957 4.18351 1.44711 4.22781 1.27557C4.2721 1.10402 4.38077 0.957177 4.53031 0.866801C5.52861 0.291342 6.65703 -0.00743824 7.80345 0.000140675C11.3704 0.0251405 14.2681 3.05012 14.2681 6.74175V7.33342C14.2681 9.1584 14.4967 10.6751 14.9537 11.8667C14.9855 11.9482 15.0012 12.0353 14.9999 12.1231C14.9986 12.2108 14.9804 12.2974 14.9463 12.3779C14.9122 12.4584 14.8628 12.5312 14.8011 12.5922C14.7393 12.6532 14.6664 12.7012 14.5864 12.7334C14.5102 12.76 14.4303 12.7741 14.3497 12.775C14.2184 12.7765 14.0899 12.7364 13.9817 12.6603C13.8736 12.5842 13.7912 12.4758 13.7457 12.35C13.2233 11.0084 12.9621 9.32507 12.9621 7.33342V6.74175C12.9621 3.78344 10.644 1.35846 7.79528 1.33346C6.88017 1.32533 5.97917 1.56391 5.1833 2.02512C5.0338 2.11298 4.85633 2.13688 4.68963 2.0916C4.52294 2.04632 4.38056 1.93555 4.29359 1.78346Z" />
</svg>
