<svg width="23" height="27" viewBox="0 0 23 27" fill="none" xmlns="http://www.w3.org/2000/svg">
<path d="M6.80411 12.4237C7.05607 12.3734 7.2777 12.225 7.42026 12.0112C7.56281 11.7974 7.61461 11.5358 7.56425 11.2838C7.51389 11.0319 7.36551 10.8102 7.15173 10.6677C6.93796 10.5251 6.67632 10.4733 6.42436 10.5237C5.25798 10.7562 4.37706 11.5725 3.90819 12.6666C3.44319 13.749 3.37473 15.1026 3.73769 16.5519C3.76603 16.6778 3.81927 16.7969 3.89426 16.902C3.96926 17.007 4.06451 17.0961 4.1744 17.1638C4.2843 17.2316 4.40663 17.2767 4.53421 17.2965C4.66179 17.3163 4.79204 17.3104 4.91731 17.2792C5.04257 17.2479 5.16033 17.1919 5.26365 17.1145C5.36698 17.0371 5.45379 16.9398 5.51898 16.8284C5.58417 16.717 5.62643 16.5936 5.64327 16.4656C5.66012 16.3376 5.65121 16.2075 5.61706 16.083C5.3329 14.9489 5.4259 14.0422 5.68811 13.4299C5.94644 12.828 6.35719 12.5128 6.80411 12.4224V12.4237ZM3.02469 2.32806C2.96957 3.24511 3.10386 4.16368 3.41919 5.02657C3.73452 5.88945 4.22415 6.67817 4.85756 7.3436C3.62707 7.6964 2.52541 8.39873 1.68625 9.36537C0.84709 10.332 0.306498 11.5214 0.130063 12.7893C-0.295089 15.8314 0.329072 18.9276 1.89965 21.5674L2.35173 22.3295C2.36886 22.3576 2.3874 22.3847 2.40727 22.4109L4.23627 24.8728C4.62367 25.3946 5.12013 25.8257 5.69111 26.136C6.26208 26.4464 6.89384 26.6286 7.5424 26.6699C8.19096 26.7112 8.84072 26.6106 9.44646 26.3752C10.0522 26.1398 10.5993 25.7752 11.0498 25.3068C11.1025 25.252 11.1657 25.2085 11.2356 25.1787C11.3055 25.1489 11.3807 25.1336 11.4567 25.1336C11.5327 25.1336 11.6079 25.1489 11.6778 25.1787C11.7477 25.2085 11.8109 25.252 11.8636 25.3068C12.314 25.7752 12.8612 26.1398 13.4669 26.3752C14.0727 26.6106 14.7224 26.7112 15.371 26.6699C16.0195 26.6286 16.6513 26.4464 17.2223 26.136C17.7932 25.8257 18.2897 25.3946 18.6771 24.8728L20.5061 22.4096C20.5256 22.3834 20.5437 22.3563 20.5604 22.3282L21.0137 21.5661C22.5854 18.9272 23.2109 15.8314 22.7872 12.7893C22.6621 11.8929 22.3544 11.0317 21.8831 10.259C21.4117 9.48635 20.7868 8.81866 20.047 8.29728C19.3072 7.7759 18.4682 7.41192 17.582 7.22788C16.6959 7.04385 15.7814 7.04366 14.8951 7.22735L12.4396 7.73627H12.4358C12.4745 6.72877 12.6321 5.64377 12.9408 4.71635C13.3154 3.59519 13.8346 2.92094 14.4133 2.68069C14.6505 2.58168 14.8387 2.3925 14.9365 2.15474C15.0342 1.91699 15.0335 1.65015 14.9345 1.41292C14.8355 1.17568 14.6463 0.987499 14.4086 0.889758C14.1708 0.792016 13.904 0.792725 13.6667 0.891728C12.3079 1.45877 11.5355 2.80339 11.1028 4.10281L11.0434 4.28623C10.7253 3.67159 10.3144 3.10959 9.82531 2.61998C9.15543 1.94934 8.35072 1.42865 7.46446 1.09241C6.5782 0.756169 5.63063 0.612038 4.68448 0.669561C4.25269 0.694415 3.84504 0.876882 3.53886 1.18235C3.23268 1.48782 3.04926 1.89504 3.0234 2.32677L3.02469 2.32806ZM4.95315 2.59544C5.60132 2.57673 6.24646 2.69084 6.84888 2.93074C7.45131 3.17065 7.99828 3.53127 8.45615 3.99044C8.91531 4.4483 9.27594 4.99527 9.51584 5.5977C9.75575 6.20012 9.86985 6.84527 9.85115 7.49343C9.61688 7.49979 9.38246 7.489 9.14977 7.46114L8.35281 7.29581C7.59532 7.06983 6.90625 6.65825 6.34815 6.09843C5.88898 5.64057 5.52836 5.0936 5.28845 4.49117C5.04855 3.88875 4.93444 3.2436 4.95315 2.59544ZM7.62561 9.12352L7.88652 9.17777C8.19652 9.2656 8.51169 9.33148 8.82944 9.3741L10.0824 9.63243C10.9898 9.82043 11.9262 9.82043 12.8336 9.63243L15.2904 9.12352C15.917 8.99364 16.5637 8.99378 17.1903 9.12394C17.8169 9.2541 18.4101 9.5115 18.9331 9.88021C19.4562 10.2489 19.8981 10.7211 20.2313 11.2674C20.5645 11.8138 20.782 12.4228 20.8704 13.0566C21.2331 15.6629 20.6968 18.3149 19.3501 20.5754L18.9225 21.2949L17.1232 23.7181C16.9036 24.0138 16.6222 24.2582 16.2986 24.4341C15.9749 24.61 15.6168 24.7133 15.2491 24.7366C14.8815 24.76 14.5132 24.7029 14.1698 24.5694C13.8265 24.4359 13.5164 24.2291 13.2611 23.9635C13.0278 23.7206 12.7478 23.5274 12.4379 23.3954C12.1281 23.2634 11.7948 23.1954 11.458 23.1954C11.1212 23.1954 10.7879 23.2634 10.478 23.3954C10.1682 23.5274 9.88816 23.7206 9.65481 23.9635C9.39956 24.2291 9.08946 24.4359 8.74613 24.5694C8.4028 24.7029 8.03449 24.76 7.66685 24.7366C7.2992 24.7133 6.94108 24.61 6.61741 24.4341C6.29374 24.2582 6.01231 24.0138 5.79273 23.7181L3.99344 21.2949L3.5659 20.5754C2.21957 18.3147 1.6838 15.6627 2.0469 13.0566C2.13525 12.4229 2.35273 11.8141 2.68586 11.2678C3.019 10.7215 3.46071 10.2494 3.98365 9.88076C4.50659 9.51207 5.09964 9.25464 5.72609 9.12438C6.35253 8.99413 6.99904 8.99384 7.62561 9.12352Z" fill="#376CF1"/>
</svg>
