<svg width="24" height="26" viewBox="0 0 24 26" fill="none" xmlns="http://www.w3.org/2000/svg">
<path d="M23.3709 18.7575C23.2754 18.6191 23.1398 18.5133 22.9822 18.4546C22.8247 18.3959 22.6529 18.387 22.4902 18.4291L21.8014 18.5359C19.7764 18.7933 17.7239 18.3562 15.9794 17.2958C14.2348 16.2355 12.9014 14.6147 12.1969 12.6983C11.4925 10.7818 11.4587 8.68314 12.1011 6.74514C12.7435 4.80713 14.0241 3.14441 15.7336 2.02872C15.8805 1.93841 15.9952 1.80407 16.0614 1.6448C16.1276 1.48553 16.142 1.30943 16.1024 1.14155C16.0715 0.979044 15.9922 0.829674 15.8749 0.713049C15.7576 0.596425 15.6078 0.517994 15.4451 0.488053C14.073 0.221143 12.665 0.19495 11.284 0.410646C8.03438 0.914145 5.11791 2.68826 3.17619 5.34271C1.23447 7.99716 0.426552 11.3145 0.930179 14.565C1.43381 17.8154 3.20772 20.7327 5.86167 22.6751C8.51563 24.6175 11.8322 25.4259 15.0819 24.9224C16.7593 24.6728 18.3656 24.0739 19.797 23.1644C21.2285 22.2549 22.4531 21.0551 23.3918 19.6424C23.4733 19.5084 23.5146 19.3537 23.5109 19.1969C23.5072 19.0401 23.4586 18.8876 23.3709 18.7575ZM14.8613 23.338C12.0415 23.7749 9.16359 23.0735 6.86069 21.388C4.55778 19.7025 3.01851 17.1711 2.58151 14.3506C2.1445 11.5301 2.84554 8.65157 4.53042 6.34823C6.2153 4.0449 8.746 2.50545 11.5658 2.06856C12.1083 1.9816 12.6572 1.94098 13.2066 1.94713C11.6592 3.43259 10.5958 5.35041 10.1553 7.45C9.71487 9.54959 9.91782 11.7333 10.7377 13.7158C11.5575 15.6983 12.9561 17.3874 14.7508 18.5623C16.5454 19.7373 18.6526 20.3435 20.7971 20.3017C19.2028 21.9346 17.1182 23.001 14.8613 23.338Z" fill="#376CF1"/>
</svg>
