<svg width="45" height="23" viewBox="0 0 45 23" fill="none" xmlns="http://www.w3.org/2000/svg">
<path fill-rule="evenodd" clip-rule="evenodd" d="M12.4942 22.0177V21.9999H31.1351C31.1351 16.7646 26.9622 12.5205 21.8146 12.5205C16.6671 12.5205 12.4941 16.7646 12.4941 21.9999C12.4941 22.0058 12.4941 22.0117 12.4942 22.0177Z" fill="#376CF1"/>
<path d="M43.9104 21.8495H34.2413C34.1247 21.8495 34.0129 21.8177 33.9305 21.7612C33.8481 21.7047 33.8018 21.628 33.8018 21.548C33.8018 21.4681 33.8481 21.3914 33.9305 21.3349C34.0129 21.2783 34.1247 21.2466 34.2413 21.2466H43.9104C44.027 21.2466 44.1388 21.2783 44.2212 21.3349C44.3036 21.3914 44.3499 21.4681 44.3499 21.548C44.3499 21.628 44.3036 21.7047 44.2212 21.7612C44.1388 21.8177 44.027 21.8495 43.9104 21.8495Z" fill="#376CF1"/>
<path d="M22.302 0.439531V10.1112C22.302 10.2278 22.2702 10.3396 22.2137 10.422C22.1572 10.5045 22.0805 10.5508 22.0006 10.5508C21.9207 10.5508 21.844 10.5045 21.7875 10.422C21.731 10.3396 21.6992 10.2278 21.6992 10.1112V0.439531C21.6992 0.322937 21.731 0.211118 21.7875 0.128673C21.844 0.0462284 21.9207 -8.86917e-05 22.0006 -8.86917e-05C22.0805 -8.86917e-05 22.1572 0.0462284 22.2137 0.128673C22.2702 0.211118 22.302 0.322937 22.302 0.439531Z" fill="#376CF1"/>
<path d="M39.013 8.14019L31.606 14.357C31.5167 14.432 31.4106 14.4795 31.3112 14.4892C31.2117 14.4989 31.1269 14.4699 31.0756 14.4087C31.0242 14.3474 31.0104 14.2589 31.0372 14.1626C31.064 14.0663 31.1292 13.9701 31.2185 13.8952L38.6255 7.67833C38.7148 7.60339 38.8209 7.55584 38.9203 7.54615C39.0198 7.53647 39.1046 7.56543 39.1559 7.62668C39.2073 7.68792 39.2211 7.77643 39.1943 7.87273C39.1675 7.96904 39.1023 8.06524 39.013 8.14019Z" fill="#376CF1"/>
<path d="M12.4051 14.3568L4.99807 8.13995C4.90877 8.065 4.84355 7.9688 4.81674 7.87249C4.78993 7.77619 4.80373 7.68768 4.85511 7.62644C4.90648 7.56519 4.99123 7.53622 5.0907 7.54591C5.19017 7.5556 5.29622 7.60315 5.38551 7.67809L12.7925 13.8949C12.8818 13.9699 12.9471 14.0661 12.9739 14.1624C13.0007 14.2587 12.9869 14.3472 12.9355 14.4084C12.8841 14.4697 12.7994 14.4987 12.6999 14.489C12.6004 14.4793 12.4944 14.4317 12.4051 14.3568Z" fill="#376CF1"/>
<path d="M10.1087 21.8495H0.439508C0.322943 21.8495 0.211153 21.8177 0.128729 21.7612C0.0463053 21.7047 0 21.628 0 21.548C0 21.4681 0.0463053 21.3914 0.128729 21.3349C0.211153 21.2783 0.322943 21.2466 0.439508 21.2466H10.1087C10.2253 21.2466 10.337 21.2783 10.4195 21.3349C10.5019 21.3914 10.5482 21.4681 10.5482 21.548C10.5482 21.628 10.5019 21.7047 10.4195 21.7612C10.337 21.8177 10.2253 21.8495 10.1087 21.8495Z" fill="#376CF1"/>
</svg>
