<svg width="38" height="42" viewBox="0 0 38 42" fill="none" xmlns="http://www.w3.org/2000/svg">
<path d="M34.907 0H26.9535C26.1332 0 25.3464 0.329521 24.7664 0.91607C24.1863 1.50262 23.8605 2.29815 23.8605 3.12766V38.8723C23.8605 39.7018 24.1863 40.4974 24.7664 41.0839C25.3464 41.6705 26.1332 42 26.9535 42H34.907C35.7273 42 36.514 41.6705 37.0941 41.0839C37.6741 40.4974 38 39.7018 38 38.8723V3.12766C38 2.29815 37.6741 1.50262 37.0941 0.91607C36.514 0.329521 35.7273 0 34.907 0ZM35.3488 38.8723C35.3488 38.9908 35.3023 39.1045 35.2194 39.1883C35.1366 39.2721 35.0242 39.3191 34.907 39.3191H26.9535C26.8363 39.3191 26.7239 39.2721 26.641 39.1883C26.5582 39.1045 26.5116 38.9908 26.5116 38.8723V3.12766C26.5116 3.00916 26.5582 2.89551 26.641 2.81172C26.7239 2.72793 26.8363 2.68085 26.9535 2.68085H34.907C35.0242 2.68085 35.1366 2.72793 35.2194 2.81172C35.3023 2.89551 35.3488 3.00916 35.3488 3.12766V38.8723ZM11.0465 0H3.09302C2.2727 0 1.48598 0.329521 0.905926 0.91607C0.325871 1.50262 0 2.29815 0 3.12766V38.8723C0 39.7018 0.325871 40.4974 0.905926 41.0839C1.48598 41.6705 2.2727 42 3.09302 42H11.0465C11.8668 42 12.6536 41.6705 13.2336 41.0839C13.8137 40.4974 14.1395 39.7018 14.1395 38.8723V3.12766C14.1395 2.29815 13.8137 1.50262 13.2336 0.91607C12.6536 0.329521 11.8668 0 11.0465 0ZM11.4884 38.8723C11.4884 38.9908 11.4418 39.1045 11.359 39.1883C11.2761 39.2721 11.1637 39.3191 11.0465 39.3191H3.09302C2.97583 39.3191 2.86345 39.2721 2.78058 39.1883C2.69772 39.1045 2.65116 38.9908 2.65116 38.8723V3.12766C2.65116 3.00916 2.69772 2.89551 2.78058 2.81172C2.86345 2.72793 2.97583 2.68085 3.09302 2.68085H11.0465C11.1637 2.68085 11.2761 2.72793 11.359 2.81172C11.4418 2.89551 11.4884 3.00916 11.4884 3.12766V38.8723Z" fill="#254660"/>
</svg>
