<svg width="73" height="73" viewBox="0 0 73 73" fill="none" xmlns="http://www.w3.org/2000/svg">
<circle cx="36.5" cy="36.5" r="36.5" fill="#F0F7F7"/>
<path d="M49.375 20.5H43.1875C42.4582 20.5 41.7587 20.7897 41.243 21.3055C40.7272 21.8212 40.4375 22.5207 40.4375 23.25V50.75C40.4375 51.4793 40.7272 52.1788 41.243 52.6945C41.7587 53.2103 42.4582 53.5 43.1875 53.5H49.375C50.1043 53.5 50.8038 53.2103 51.3195 52.6945C51.8353 52.1788 52.125 51.4793 52.125 50.75V23.25C52.125 22.5207 51.8353 21.8212 51.3195 21.3055C50.8038 20.7897 50.1043 20.5 49.375 20.5ZM49.375 50.75H43.1875V23.25H49.375V50.75ZM30.8125 20.5H24.625C23.8957 20.5 23.1962 20.7897 22.6805 21.3055C22.1647 21.8212 21.875 22.5207 21.875 23.25V50.75C21.875 51.4793 22.1647 52.1788 22.6805 52.6945C23.1962 53.2103 23.8957 53.5 24.625 53.5H30.8125C31.5418 53.5 32.2413 53.2103 32.757 52.6945C33.2728 52.1788 33.5625 51.4793 33.5625 50.75V23.25C33.5625 22.5207 33.2728 21.8212 32.757 21.3055C32.2413 20.7897 31.5418 20.5 30.8125 20.5ZM30.8125 50.75H24.625V23.25H30.8125V50.75Z" fill="#254660"/>
</svg>
