<svg width="44" height="44" viewBox="0 0 44 44" fill="none" xmlns="http://www.w3.org/2000/svg">
<path d="M34.3751 5.5C34.0104 5.5 33.6606 5.64487 33.4028 5.90273C33.1449 6.16059 33.0001 6.51033 33.0001 6.875V19.5422L12.4266 6.97812C12.0093 6.72491 11.5321 6.58734 11.0441 6.57952C10.556 6.57171 10.0747 6.69394 9.64948 6.93365C9.22429 7.17337 8.87056 7.52195 8.62462 7.94358C8.37868 8.36521 8.2494 8.8447 8.25004 9.33281V34.6672C8.2473 35.1579 8.37673 35.6402 8.62471 36.0636C8.8727 36.487 9.23011 36.8358 9.65942 37.0734C10.0679 37.3049 10.5306 37.4235 11 37.4172C11.5025 37.4166 11.9955 37.28 12.4266 37.0219L33.0001 24.4578V37.125C33.0001 37.4897 33.1449 37.8394 33.4028 38.0973C33.6606 38.3551 34.0104 38.5 34.3751 38.5C34.7397 38.5 35.0895 38.3551 35.3473 38.0973C35.6052 37.8394 35.7501 37.4897 35.7501 37.125V6.875C35.7501 6.51033 35.6052 6.16059 35.3473 5.90273C35.0895 5.64487 34.7397 5.5 34.3751 5.5ZM11 34.6672V9.33281L31.7454 22L11 34.6672Z" fill="#5A7082"/>
</svg>
