<svg width="73" height="74" viewBox="0 0 73 74" fill="none" xmlns="http://www.w3.org/2000/svg">
<g clip-path="url(#clip0_835_1009)">
<path d="M36.5 73.5C56.6584 73.5 73 57.1584 73 37C73 16.8416 56.6584 0.5 36.5 0.5C16.3416 0.5 0 16.8416 0 37C0 57.1584 16.3416 73.5 36.5 73.5Z" fill="#AEB9B9"/>
<path d="M49.375 21H43.1875C42.4582 21 41.7587 21.2897 41.243 21.8055C40.7272 22.3212 40.4375 23.0207 40.4375 23.75V51.25C40.4375 51.9793 40.7272 52.6788 41.243 53.1945C41.7587 53.7103 42.4582 54 43.1875 54H49.375C50.1043 54 50.8038 53.7103 51.3195 53.1945C51.8353 52.6788 52.125 51.9793 52.125 51.25V23.75C52.125 23.0207 51.8353 22.3212 51.3195 21.8055C50.8038 21.2897 50.1043 21 49.375 21ZM49.375 51.25H43.1875V23.75H49.375V51.25ZM30.8125 21H24.625C23.8957 21 23.1962 21.2897 22.6805 21.8055C22.1647 22.3212 21.875 23.0207 21.875 23.75V51.25C21.875 51.9793 22.1647 52.6788 22.6805 53.1945C23.1962 53.7103 23.8957 54 24.625 54H30.8125C31.5418 54 32.2413 53.7103 32.757 53.1945C33.2728 52.6788 33.5625 51.9793 33.5625 51.25V23.75C33.5625 23.0207 33.2728 22.3212 32.757 21.8055C32.2413 21.2897 31.5418 21 30.8125 21ZM30.8125 51.25H24.625V23.75H30.8125V51.25Z" fill="#254660"/>
</g>
<defs>
<clipPath id="clip0_835_1009">
<rect width="73" height="73" fill="white" transform="translate(0 0.5)"/>
</clipPath>
</defs>
</svg>
