<svg width="24" height="24" viewBox="0 0 24 24" fill="none" xmlns="http://www.w3.org/2000/svg">
<path d="M22.5 12.0002C22.4994 12.2581 22.4328 12.5116 22.3064 12.7365C22.1801 12.9613 21.9982 13.15 21.7781 13.2846L8.27813 21.5252C8.05326 21.6677 7.79356 21.7457 7.52738 21.7507C7.26121 21.7556 6.99878 21.6874 6.76876 21.5533C6.53533 21.4253 6.34074 21.2367 6.20545 21.0073C6.07017 20.778 5.9992 20.5165 6.00001 20.2502V3.75021C5.9992 3.48396 6.07017 3.22242 6.20545 2.9931C6.34074 2.76378 6.53533 2.57516 6.76876 2.44709C6.99878 2.31306 7.26121 2.2448 7.52738 2.24976C7.79356 2.25472 8.05326 2.33271 8.27813 2.47521L21.7781 10.7158C21.9982 10.8504 22.1801 11.0391 22.3064 11.264C22.4328 11.4888 22.4994 11.7423 22.5 12.0002Z" fill="#254660"/>
</svg>
