<svg width="24" height="24" viewBox="0 0 24 24" fill="none" xmlns="http://www.w3.org/2000/svg">
<path d="M2.25031 12C2.25279 10.2106 2.96475 8.49513 4.23008 7.22979C5.49541 5.96446 7.21086 5.25251 9.00031 5.25002H18.0003V3.75002C17.9999 3.60196 18.0432 3.45706 18.125 3.33361C18.2067 3.21015 18.3232 3.11365 18.4597 3.05627C18.5982 3.00224 18.7492 2.98853 18.8952 3.01674C19.0412 3.04494 19.1762 3.11391 19.2847 3.21565L21.5347 5.46565C21.6755 5.60785 21.7545 5.79989 21.7545 6.00002C21.7545 6.20016 21.6755 6.3922 21.5347 6.5344L19.2847 8.7844C19.1407 8.92201 18.9495 8.99918 18.7503 9.00002C18.6508 8.99959 18.5522 8.98051 18.4597 8.94378C18.3232 8.8864 18.2067 8.7899 18.125 8.66644C18.0432 8.54299 17.9999 8.39809 18.0003 8.25002V6.75002H9.00031C7.60793 6.75002 6.27257 7.30315 5.288 8.28771C4.30344 9.27228 3.75031 10.6076 3.75031 12C3.75031 12.1989 3.6713 12.3897 3.53064 12.5304C3.38999 12.671 3.19923 12.75 3.00031 12.75C2.8014 12.75 2.61063 12.671 2.46998 12.5304C2.32933 12.3897 2.25031 12.1989 2.25031 12ZM21.0003 11.25C20.8014 11.25 20.6106 11.329 20.47 11.4697C20.3293 11.6103 20.2503 11.8011 20.2503 12C20.2503 13.3924 19.6972 14.7278 18.7126 15.7123C17.7281 16.6969 16.3927 17.25 15.0003 17.25H6.00031V15.75C6.00078 15.602 5.9574 15.4571 5.87565 15.3336C5.7939 15.2101 5.67744 15.1137 5.54094 15.0563C5.4024 15.0022 5.2514 14.9885 5.10541 15.0167C4.95941 15.0449 4.82438 15.1139 4.71594 15.2157L2.46594 17.4657C2.3251 17.6078 2.24609 17.7999 2.24609 18C2.24609 18.2002 2.3251 18.3922 2.46594 18.5344L4.71594 20.7844C4.85991 20.922 5.05116 20.9992 5.25031 21C5.34985 20.9996 5.44843 20.9805 5.54094 20.9438C5.67744 20.8864 5.7939 20.7899 5.87565 20.6664C5.9574 20.543 6.00078 20.3981 6.00031 20.25V18.75H15.0003C16.7898 18.7475 18.5052 18.0356 19.7705 16.7703C21.0359 15.5049 21.7478 13.7895 21.7503 12C21.7503 11.8011 21.6713 11.6103 21.5306 11.4697C21.39 11.329 21.1992 11.25 21.0003 11.25Z" fill="#5A7082"/>
</svg>
