<svg width="73" height="73" viewBox="0 0 73 73" fill="none" xmlns="http://www.w3.org/2000/svg">
<circle cx="36.5" cy="36.5" r="36.5" fill="#F0F7F7"/>
<g clip-path="url(#clip0_2359_2568)">
<path d="M56.25 36.9998C56.249 37.4727 56.1268 37.9374 55.8951 38.3496C55.6634 38.7618 55.33 39.1078 54.9266 39.3545L30.1766 54.4623C29.7643 54.7236 29.2882 54.8666 28.8002 54.8756C28.3122 54.8847 27.8311 54.7596 27.4094 54.5139C26.9814 54.2791 26.6247 53.9333 26.3767 53.5129C26.1286 53.0924 25.9985 52.6129 26 52.1248V21.8748C25.9985 21.3867 26.1286 20.9072 26.3767 20.4868C26.6247 20.0664 26.9814 19.7206 27.4094 19.4858C27.8311 19.24 28.3122 19.1149 28.8002 19.124C29.2882 19.1331 29.7643 19.2761 30.1766 19.5373L54.9266 34.6451C55.33 34.8918 55.6634 35.2378 55.8951 35.65C56.1268 36.0622 56.249 36.527 56.25 36.9998Z" fill="#254660"/>
</g>
<defs>
<clipPath id="clip0_2359_2568">
<rect width="44" height="44" fill="white" transform="translate(15 15)"/>
</clipPath>
</defs>
</svg>
