<svg width="24" height="24" viewBox="0 0 24 24" fill="none" xmlns="http://www.w3.org/2000/svg">
<path d="M21.7503 12C21.7478 13.7895 21.0359 15.5049 19.7705 16.7703C18.5052 18.0356 16.7898 18.7475 15.0003 18.75H6.00031V20.25C6.00078 20.3981 5.9574 20.543 5.87565 20.6664C5.7939 20.7899 5.67744 20.8864 5.54094 20.9438C5.44843 20.9805 5.34985 20.9996 5.25031 21C5.05116 20.9992 4.85991 20.922 4.71594 20.7844L2.46594 18.5344C2.3251 18.3922 2.24609 18.2002 2.24609 18C2.24609 17.7999 2.3251 17.6078 2.46594 17.4657L4.71594 15.2157C4.82438 15.1139 4.95941 15.0449 5.10541 15.0167C5.2514 14.9885 5.4024 15.0022 5.54094 15.0563C5.67744 15.1137 5.7939 15.2101 5.87565 15.3336C5.9574 15.4571 6.00078 15.602 6.00031 15.75V17.25H15.0003C16.3927 17.25 17.7281 16.6969 18.7126 15.7123C19.6972 14.7278 20.2503 13.3924 20.2503 12C20.2503 11.8011 20.3293 11.6103 20.47 11.4697C20.6106 11.329 20.8014 11.25 21.0003 11.25C21.1992 11.25 21.39 11.329 21.5306 11.4697C21.6713 11.6103 21.7503 11.8011 21.7503 12ZM3.00031 12.75C3.19923 12.75 3.38999 12.671 3.53064 12.5304C3.6713 12.3897 3.75031 12.1989 3.75031 12C3.75031 10.6076 4.30344 9.27228 5.288 8.28771C6.27257 7.30315 7.60793 6.75003 9.00031 6.75002H18.0003V8.25002C17.9999 8.39809 18.0432 8.54299 18.125 8.66644C18.2067 8.7899 18.3232 8.8864 18.4597 8.94378C18.5522 8.98051 18.6508 8.99959 18.7503 9.00002C18.9495 8.99918 19.1407 8.92201 19.2847 8.7844L21.5347 6.5344C21.6755 6.3922 21.7545 6.20016 21.7545 6.00002C21.7545 5.79989 21.6755 5.60785 21.5347 5.46565L19.2847 3.21565C19.1762 3.11391 19.0412 3.04494 18.8952 3.01674C18.7492 2.98853 18.5982 3.00224 18.4597 3.05627C18.3232 3.11365 18.2067 3.21015 18.125 3.33361C18.0432 3.45706 17.9999 3.60196 18.0003 3.75002V5.25002H9.00031C7.21086 5.25251 5.49541 5.96446 4.23008 7.22979C2.96475 8.49513 2.25279 10.2106 2.25031 12C2.25031 12.1989 2.32933 12.3897 2.46998 12.5304C2.61063 12.671 2.8014 12.75 3.00031 12.75ZM12.3753 15C12.5742 15 12.765 14.921 12.9056 14.7804C13.0463 14.6397 13.1253 14.4489 13.1253 14.25V9.75003C13.1261 9.62204 13.0937 9.49604 13.0312 9.38431C12.9688 9.27259 12.8785 9.17895 12.7691 9.11252C12.6605 9.04431 12.5363 9.00504 12.4083 8.99847C12.2803 8.99191 12.1527 9.01827 12.0378 9.07503L10.5378 9.82503C10.3614 9.91726 10.2277 10.0743 10.1647 10.2632C10.1018 10.452 10.1145 10.6579 10.2003 10.8375C10.2924 11.014 10.4501 11.1473 10.6395 11.2087C10.8288 11.27 11.0347 11.2546 11.2128 11.1657L11.6253 10.9594V14.25C11.6253 14.4489 11.7043 14.6397 11.845 14.7804C11.9856 14.921 12.1764 15 12.3753 15Z" fill="#00622D"/>
</svg>
