<svg width="73" height="74" viewBox="0 0 73 74" fill="none" xmlns="http://www.w3.org/2000/svg">
<g clip-path="url(#clip0_835_1002)">
<path d="M36.5 73.5C56.6584 73.5 73 57.1584 73 37C73 16.8416 56.6584 0.5 36.5 0.5C16.3416 0.5 0 16.8416 0 37C0 57.1584 16.3416 73.5 36.5 73.5Z" fill="#AEB9B9"/>
<mask id="mask0_835_1002" style="mask-type:luminance" maskUnits="userSpaceOnUse" x="15" y="15" width="44" height="45">
<path d="M59 15.5H15V59.5H59V15.5Z" fill="white"/>
</mask>
<g mask="url(#mask0_835_1002)">
<path d="M56.25 37.4998C56.249 37.9727 56.1268 38.4374 55.8951 38.8496C55.6634 39.2618 55.33 39.6078 54.9266 39.8545L30.1766 54.9623C29.7643 55.2236 29.2882 55.3666 28.8002 55.3756C28.3122 55.3847 27.8311 55.2596 27.4094 55.0139C26.9814 54.7791 26.6247 54.4333 26.3767 54.0129C26.1286 53.5924 25.9985 53.1129 26 52.6248V22.3748C25.9985 21.8867 26.1286 21.4072 26.3767 20.9868C26.6247 20.5664 26.9814 20.2206 27.4094 19.9858C27.8311 19.74 28.3122 19.6149 28.8002 19.624C29.2882 19.6331 29.7643 19.7761 30.1766 20.0373L54.9266 35.1451C55.33 35.3918 55.6634 35.7378 55.8951 36.15C56.1268 36.5622 56.249 37.027 56.25 37.4998Z" fill="#254660"/>
</g>
</g>
<defs>
<clipPath id="clip0_835_1002">
<rect width="73" height="73" fill="white" transform="translate(0 0.5)"/>
</clipPath>
</defs>
</svg>
