<svg width="40" height="47" viewBox="0 0 40 47" fill="none" xmlns="http://www.w3.org/2000/svg">
<path d="M40 23.5C39.9986 24.1216 39.8371 24.7325 39.5307 25.2744C39.2244 25.8163 38.7834 26.2711 38.25 26.5955L5.52274 46.456C4.9776 46.7995 4.34802 46.9874 3.70275 46.9994C3.05747 47.0113 2.42129 46.8468 1.86365 46.5238C1.29777 46.2152 0.82603 45.7606 0.498072 45.2079C0.170113 44.6552 -0.00193967 44.0249 1.64963e-05 43.3832V3.61682C-0.00193967 2.97513 0.170113 2.34479 0.498072 1.7921C0.82603 1.23942 1.29777 0.784834 1.86365 0.476177C2.42129 0.153164 3.05747 -0.0113456 3.70275 0.000608C4.34802 0.0125616 4.9776 0.200518 5.52274 0.543961L38.25 20.4046C38.7834 20.7289 39.2244 21.1837 39.5307 21.7256C39.8371 22.2675 39.9986 22.8784 40 23.5Z" fill="#254660"/>
</svg>
