<svg width="32" height="27" viewBox="0 0 32 27" fill="none" xmlns="http://www.w3.org/2000/svg">
<path d="M24.6154 4.90909H2.46154C1.8087 4.90909 1.1826 5.16769 0.720968 5.62801C0.25934 6.08833 0 6.71265 0 7.36364V24.5455C0 25.1964 0.25934 25.8208 0.720968 26.2811C1.1826 26.7414 1.8087 27 2.46154 27H24.6154C25.2682 27 25.8943 26.7414 26.356 26.2811C26.8176 25.8208 27.0769 25.1964 27.0769 24.5455V7.36364C27.0769 6.71265 26.8176 6.08833 26.356 5.62801C25.8943 5.16769 25.2682 4.90909 24.6154 4.90909ZM24.6154 24.5455H2.46154V7.36364H24.6154V24.5455ZM32 2.45455V20.8636C32 21.1891 31.8703 21.5013 31.6395 21.7315C31.4087 21.9616 31.0957 22.0909 30.7692 22.0909C30.4428 22.0909 30.1298 21.9616 29.8989 21.7315C29.6681 21.5013 29.5385 21.1891 29.5385 20.8636V2.45455H6.15385C5.82743 2.45455 5.51438 2.32524 5.28356 2.09509C5.05275 1.86493 4.92308 1.55277 4.92308 1.22727C4.92308 0.90178 5.05275 0.589618 5.28356 0.35946C5.51438 0.129302 5.82743 0 6.15385 0H29.5385C30.1913 0 30.8174 0.258603 31.279 0.71892C31.7407 1.17924 32 1.80356 32 2.45455Z" />
</svg>
