<svg width="118" height="104" viewBox="0 0 118 104" fill="none" xmlns="http://www.w3.org/2000/svg">
<g clip-path="url(#clip0_384_106)">
<path d="M0.389893 70.25C0.389893 56.37 9.38989 48.16 24.6999 48.16H60.1099V55.26H24.9199C13.3799 55.26 7.15989 60.59 7.15989 70.26C7.15989 79.93 13.3799 85.26 24.9199 85.26H60.1099V92.36H24.6999C9.37989 92.33 0.389893 84.23 0.389893 70.25Z" fill="#1A6237"/>
<path d="M117.73 33.21C117.73 47.08 108.73 55.29 93.43 55.29H58V48.19H93.2C104.75 48.19 110.96 42.86 110.96 33.19C110.96 23.52 104.75 18.19 93.2 18.19H58V11.09H93.41C108.74 11.12 117.73 19.22 117.73 33.21Z" fill="#1A6237"/>
<path d="M74.82 76.91C84.61 76.91 96.71 89.19 96.71 89.19C96.71 89.19 84.61 101.47 74.82 101.47C65.03 101.47 61.24 95.97 61.24 89.19C61.24 82.41 65 76.91 74.82 76.91Z" stroke="#1A6237" stroke-width="6" stroke-miterlimit="10" stroke-linecap="round"/>
<path d="M43.15 27.7C33.36 27.7 21.26 15.42 21.26 15.42C21.26 15.42 33.36 3.14001 43.15 3.14001C52.94 3.14001 56.73 8.64001 56.73 15.42C56.73 22.2 53 27.7 43.15 27.7Z" stroke="#1A6237" stroke-width="6" stroke-miterlimit="10" stroke-linecap="round"/>
</g>
<defs>
<clipPath id="clip0_384_106">
<rect width="118" height="104" fill="white"/>
</clipPath>
</defs>
</svg>
