<svg width="24" height="24" viewBox="0 0 24 24" fill="none" xmlns="http://www.w3.org/2000/svg">
<path d="M20.9925 13.9783C21.0194 14.0731 21.0271 14.1724 21.0152 14.2702C21.0033 14.368 20.972 14.4625 20.9231 14.548C20.8742 14.6336 20.8087 14.7085 20.7305 14.7685C20.6523 14.8284 20.5628 14.8721 20.4675 14.8971L18.1144 15.5346L18.7425 17.8783C18.7694 17.9731 18.7771 18.0724 18.7652 18.1702C18.7533 18.268 18.722 18.3625 18.6731 18.448C18.6242 18.5336 18.5587 18.6085 18.4805 18.6685C18.4023 18.7284 18.3128 18.7721 18.2175 18.7971L18.0206 18.8252C17.8563 18.8248 17.6967 18.7705 17.5663 18.6705C17.4359 18.5706 17.3419 18.4306 17.2988 18.2721L16.5581 15.4971L12.7519 13.3033V17.6908L14.7863 19.7158C14.9271 19.858 15.0061 20.0501 15.0061 20.2502C15.0061 20.4504 14.9271 20.6424 14.7863 20.7846C14.6429 20.9232 14.4513 21.0007 14.2519 21.0007C14.0525 21.0007 13.8609 20.9232 13.7175 20.7846L12.0019 19.0596L10.2863 20.7846C10.1405 20.9042 9.95554 20.9653 9.76725 20.9561C9.57896 20.9468 9.40084 20.8679 9.26754 20.7346C9.13424 20.6013 9.05529 20.4231 9.04604 20.2348C9.03679 20.0466 9.09791 19.8616 9.21751 19.7158L11.2519 17.6908V13.3033L7.44563 15.4971L6.70501 18.2721C6.66188 18.4306 6.56789 18.5706 6.43747 18.6705C6.30705 18.7705 6.14743 18.8248 5.98313 18.8252L5.78626 18.7971C5.69092 18.7721 5.60152 18.7284 5.52329 18.6685C5.44506 18.6085 5.37959 18.5336 5.33069 18.448C5.2818 18.3625 5.25047 18.268 5.23855 18.1702C5.22663 18.0724 5.23435 17.9731 5.26126 17.8783L5.88938 15.5346L3.53626 14.8971C3.43544 14.8769 3.33986 14.8362 3.25544 14.7775C3.17103 14.7188 3.09958 14.6434 3.04554 14.5559C2.9915 14.4684 2.95602 14.3708 2.94131 14.269C2.9266 14.1673 2.93297 14.0636 2.96002 13.9644C2.98707 13.8652 3.03423 13.7726 3.09857 13.6924C3.16291 13.6122 3.24305 13.5461 3.33401 13.4982C3.42498 13.4502 3.52483 13.4215 3.62735 13.4138C3.72988 13.4061 3.8329 13.4196 3.93001 13.4533L6.69563 14.194L10.5019 12.0002L6.69563 9.80647L3.93001 10.5471C3.86602 10.5656 3.79975 10.5751 3.73313 10.5752C3.55257 10.5737 3.37863 10.507 3.24326 10.3875C3.10789 10.268 3.02018 10.1037 2.99624 9.92468C2.9723 9.7457 3.01374 9.56409 3.11294 9.41321C3.21214 9.26233 3.36245 9.1523 3.53626 9.10334L5.88938 8.46584L5.26126 6.12209C5.22393 5.93577 5.25872 5.74223 5.35859 5.58056C5.45846 5.4189 5.61598 5.30118 5.79931 5.25118C5.98263 5.20118 6.17811 5.22264 6.34623 5.31121C6.51434 5.39978 6.64258 5.54887 6.70501 5.72834L7.44563 8.50334L11.2519 10.6971V6.30959L9.21751 4.28459C9.09791 4.13887 9.03679 3.95387 9.04604 3.76558C9.05529 3.57729 9.13424 3.39917 9.26754 3.26587C9.40084 3.13257 9.57896 3.05362 9.76725 3.04437C9.95554 3.03512 10.1405 3.09624 10.2863 3.21584L12.0019 4.94084L13.7175 3.21584C13.8632 3.09624 14.0482 3.03512 14.2365 3.04437C14.4248 3.05362 14.6029 3.13257 14.7362 3.26587C14.8695 3.39917 14.9485 3.57729 14.9577 3.76558C14.967 3.95387 14.9059 4.13887 14.7863 4.28459L12.7519 6.30959V10.6971L16.5581 8.50334L17.2988 5.72834C17.319 5.62753 17.3597 5.53194 17.4184 5.44753C17.4771 5.36311 17.5525 5.29166 17.64 5.23762C17.7274 5.18358 17.8251 5.1481 17.9268 5.13339C18.0286 5.11868 18.1323 5.12505 18.2315 5.1521C18.3307 5.17916 18.4233 5.22632 18.5035 5.29065C18.5837 5.35499 18.6498 5.43513 18.6977 5.52609C18.7456 5.61706 18.7743 5.71691 18.782 5.81944C18.7897 5.92196 18.7763 6.02498 18.7425 6.12209L18.1144 8.46584L20.4675 9.10334C20.6413 9.1523 20.7916 9.26233 20.8908 9.41321C20.99 9.56409 21.0315 9.7457 21.0075 9.92468C20.9836 10.1037 20.8959 10.268 20.7605 10.3875C20.6251 10.507 20.4512 10.5737 20.2706 10.5752L20.0738 10.5471L17.3081 9.80647L13.5019 12.0002L17.3081 14.194L20.0738 13.4533C20.1686 13.4264 20.2678 13.4187 20.3656 13.4306C20.4634 13.4426 20.5579 13.4739 20.6435 13.5228C20.729 13.5717 20.804 13.6371 20.8639 13.7154C20.9238 13.7936 20.9676 13.883 20.9925 13.9783Z" fill="#5A7082"/>
</svg>
