<svg width="24" height="24" viewBox="0 0 24 24" fill="none" xmlns="http://www.w3.org/2000/svg">
<path d="M23.25 12C23.2516 12.9861 23.0577 13.9628 22.6796 14.8736C22.3014 15.7844 21.7465 16.6112 21.0469 17.3062C20.9069 17.4441 20.7184 17.5215 20.5219 17.5218C20.3227 17.521 20.1315 17.4438 19.9875 17.3062C19.8472 17.1656 19.7685 16.9751 19.7685 16.7765C19.7685 16.5779 19.8472 16.3874 19.9875 16.2468C20.5459 15.6895 20.989 15.0276 21.2912 14.2988C21.5935 13.5701 21.7491 12.7889 21.7491 12C21.7491 11.211 21.5935 10.4298 21.2912 9.7011C20.989 8.97237 20.5459 8.3104 19.9875 7.7531C19.8582 7.61043 19.7888 7.42351 19.7935 7.23105C19.7983 7.03858 19.8768 6.85531 20.013 6.71918C20.1491 6.58304 20.3324 6.50447 20.5248 6.49974C20.7173 6.495 20.9042 6.56445 21.0469 6.69372C21.7465 7.38874 22.3014 8.21554 22.6796 9.12632C23.0577 10.0371 23.2516 11.0138 23.25 12ZM15 2.99997V21C15.0001 21.1407 14.9606 21.2787 14.886 21.3981C14.8114 21.5174 14.7047 21.6134 14.5781 21.675C14.4753 21.723 14.3635 21.7486 14.25 21.75C14.0835 21.7486 13.9221 21.6926 13.7906 21.5906L7.24688 16.5H3C2.60218 16.5 2.22064 16.3419 1.93934 16.0606C1.65804 15.7793 1.5 15.3978 1.5 15V8.99997C1.5 8.60215 1.65804 8.22062 1.93934 7.93931C2.22064 7.65801 2.60218 7.49997 3 7.49997H7.24688L13.7906 2.40935C13.9014 2.32354 14.0339 2.27046 14.1733 2.25613C14.3127 2.2418 14.4532 2.26679 14.5791 2.32827C14.705 2.38975 14.8112 2.48526 14.8856 2.60398C14.9599 2.7227 14.9996 2.85988 15 2.99997ZM3 15H6.75V8.99997H3V15ZM13.5 4.53747L8.25 8.6156V15.3843L13.5 19.4625V4.53747ZM17.3344 9.34685C17.1941 9.48745 17.1153 9.67794 17.1153 9.87653C17.1153 10.0751 17.1941 10.2656 17.3344 10.4062C17.5453 10.6146 17.7127 10.8628 17.827 11.1364C17.9412 11.41 18.0001 11.7035 18.0001 12C18.0001 12.2965 17.9412 12.59 17.827 12.8636C17.7127 13.1371 17.5453 13.3853 17.3344 13.5937C17.1941 13.7343 17.1153 13.9248 17.1153 14.1234C17.1153 14.322 17.1941 14.5125 17.3344 14.6531C17.4783 14.7907 17.6696 14.8679 17.8688 14.8687C18.0675 14.866 18.2581 14.7891 18.4031 14.6531C19.105 13.9485 19.4991 12.9945 19.4991 12C19.4991 11.0054 19.105 10.0514 18.4031 9.34685C18.2609 9.20601 18.0689 9.127 17.8688 9.127C17.6686 9.127 17.4766 9.20601 17.3344 9.34685Z" fill="white"/>
</svg>
