<svg width="29" height="29" viewBox="0 0 29 29" fill="none" xmlns="http://www.w3.org/2000/svg">
<path d="M27.7917 9.66667H21.75V3.625C21.75 3.30453 21.6227 2.99719 21.3961 2.77058C21.1695 2.54397 20.8621 2.41667 20.5417 2.41667H2.41667V1.20833C2.41667 0.887863 2.28936 0.580519 2.06275 0.353913C1.83615 0.127306 1.5288 0 1.20833 0C0.887863 0 0.580519 0.127306 0.353913 0.353913C0.127306 0.580519 0 0.887863 0 1.20833V27.7917C0 28.1121 0.127306 28.4195 0.353913 28.6461C0.580519 28.8727 0.887863 29 1.20833 29C1.5288 29 1.83615 28.8727 2.06275 28.6461C2.28936 28.4195 2.41667 28.1121 2.41667 27.7917V26.5833H15.7083C16.0288 26.5833 16.3361 26.456 16.5628 26.2294C16.7894 26.0028 16.9167 25.6955 16.9167 25.375V19.3333H27.7917C28.1121 19.3333 28.4195 19.206 28.6461 18.9794C28.8727 18.7528 29 18.4455 29 18.125V10.875C29 10.5545 28.8727 10.2472 28.6461 10.0206C28.4195 9.79397 28.1121 9.66667 27.7917 9.66667ZM19.3333 4.83333V9.66667H2.41667V4.83333H19.3333ZM14.5 24.1667H2.41667V19.3333H14.5V24.1667ZM26.5833 16.9167H2.41667V12.0833H26.5833V16.9167Z" fill="#5C7869"/>
</svg>
