<svg width="22" height="22" viewBox="0 0 22 22" fill="none" xmlns="http://www.w3.org/2000/svg">
<path d="M19.4659 4.84676L11.2159 2.09676C11.0759 2.05368 10.9262 2.05368 10.7862 2.09676L2.54477 4.84676H2.52759L2.44165 4.88973H2.43306L2.34712 4.94129C2.34712 4.94989 2.33852 4.94989 2.32993 4.95848L2.26118 5.01864L2.20102 5.08739C2.20102 5.09598 2.19243 5.09598 2.19243 5.10458L2.14087 5.18192C2.14087 5.19051 2.14087 5.19051 2.13227 5.19911L2.0979 5.27645L2.07212 5.37098V5.39676C2.06364 5.43044 2.06074 5.46527 2.06352 5.49989V12.3749C2.06352 12.5572 2.13596 12.7321 2.26489 12.861C2.39382 12.99 2.56869 13.0624 2.75102 13.0624C2.93336 13.0624 3.10823 12.99 3.23716 12.861C3.36609 12.7321 3.43852 12.5572 3.43852 12.3749V6.45379L6.32602 7.41629C5.78355 8.2846 5.49756 9.28856 5.50102 10.3124C5.50134 11.2435 5.73805 12.1593 6.18898 12.974C6.6399 13.7887 7.29028 14.4755 8.07915 14.9702C6.43981 15.5904 5.04028 16.716 4.08306 18.1843C3.98549 18.3386 3.95243 18.525 3.99101 18.7034C4.02959 18.8818 4.13671 19.038 4.28931 19.1382C4.36419 19.1878 4.44817 19.222 4.53639 19.239C4.62461 19.2559 4.71531 19.2551 4.80324 19.2368C4.89117 19.2184 4.97457 19.1827 5.04862 19.1319C5.12267 19.081 5.18589 19.016 5.23462 18.9405C5.85863 17.9793 6.71303 17.1893 7.72012 16.6424C8.7272 16.0955 9.85502 15.8091 11.001 15.8091C12.147 15.8091 13.2748 16.0955 14.2819 16.6424C15.289 17.1893 16.1434 17.9793 16.7674 18.9405C16.8302 19.0358 16.9157 19.114 17.0162 19.168C17.1167 19.222 17.2291 19.2502 17.3432 19.2499C17.4749 19.2513 17.6039 19.2123 17.7127 19.1382C17.8653 19.038 17.9725 18.8818 18.011 18.7034C18.0496 18.525 18.0166 18.3386 17.919 18.1843C16.9618 16.716 15.5622 15.5904 13.9229 14.9702C14.7118 14.4755 15.3621 13.7887 15.8131 12.974C16.264 12.1593 16.5007 11.2435 16.501 10.3124C16.5045 9.28856 16.2185 8.2846 15.676 7.41629L19.4659 6.15301C19.6034 6.1078 19.7232 6.02032 19.8081 5.90304C19.893 5.78576 19.9387 5.64467 19.9387 5.49989C19.9387 5.3551 19.893 5.21401 19.8081 5.09673C19.7232 4.97945 19.6034 4.89197 19.4659 4.84676ZM15.126 10.3124C15.126 11.4064 14.6914 12.4556 13.9178 13.2292C13.1443 14.0028 12.095 14.4374 11.001 14.4374C9.90701 14.4374 8.8578 14.0028 8.08421 13.2292C7.31062 12.4556 6.87602 11.4064 6.87602 10.3124C6.87768 9.43216 7.1574 8.57496 7.67524 7.86317L10.7862 8.90301C10.9257 8.94892 11.0763 8.94892 11.2159 8.90301L14.3268 7.86317C14.8446 8.57496 15.1244 9.43216 15.126 10.3124ZM14.3268 6.41942H14.3182L11.001 7.52801L7.68384 6.41942H7.67524L4.92524 5.49989L11.001 3.47176L17.0768 5.49989L14.3268 6.41942Z"/>
</svg>
