<svg width="40" height="40" viewBox="0 0 40 40" fill="none" xmlns="http://www.w3.org/2000/svg">
<g filter="url(#filter0_d_2390_2898)">
<circle cx="20" cy="16" r="14" fill="white"/>
</g>
<g clip-path="url(#clip0_2390_2898)">
<path d="M25.0781 15.5C25.0781 16.6032 24.751 17.6817 24.138 18.599C23.5251 19.5164 22.6539 20.2313 21.6347 20.6535C20.6154 21.0757 19.4938 21.1862 18.4118 20.9709C17.3297 20.7557 16.3358 20.2244 15.5557 19.4443C14.7756 18.6642 14.2443 17.6703 14.0291 16.5882C13.8138 15.5062 13.9243 14.3846 14.3465 13.3653C14.7687 12.3461 15.4836 11.4749 16.401 10.862C17.3183 10.249 18.3968 9.92188 19.5 9.92188C20.9787 9.92404 22.3963 10.5124 23.4419 11.5581C24.4876 12.6037 25.076 14.0213 25.0781 15.5ZM19.5 8.60938C19.674 8.60938 19.841 8.54023 19.964 8.41716C20.0871 8.29409 20.1562 8.12717 20.1562 7.95312V6.3125C20.1562 6.13845 20.0871 5.97153 19.964 5.84846C19.841 5.72539 19.674 5.65625 19.5 5.65625C19.326 5.65625 19.159 5.72539 19.036 5.84846C18.9129 5.97153 18.8438 6.13845 18.8438 6.3125V7.95312C18.8438 8.12717 18.9129 8.29409 19.036 8.41716C19.159 8.54023 19.326 8.60938 19.5 8.60938ZM13.7004 10.6273C13.8244 10.7481 13.9907 10.8157 14.1639 10.8157C14.337 10.8157 14.5033 10.7481 14.6273 10.6273C14.7501 10.5043 14.819 10.3376 14.819 10.1639C14.819 9.99009 14.7501 9.82342 14.6273 9.70039L13.4707 8.53555C13.4119 8.46385 13.3387 8.40527 13.2558 8.36357C13.173 8.32187 13.0823 8.29798 12.9897 8.29343C12.897 8.28888 12.8045 8.30378 12.7179 8.33716C12.6314 8.37054 12.5528 8.42166 12.4872 8.48725C12.4217 8.55283 12.3705 8.63141 12.3372 8.71795C12.3038 8.80448 12.2889 8.89704 12.2934 8.98968C12.298 9.08232 12.3219 9.17297 12.3636 9.25582C12.4053 9.33866 12.4639 9.41186 12.5355 9.4707L13.7004 10.6273ZM12.6094 15.5C12.6094 15.326 12.5402 15.159 12.4172 15.036C12.2941 14.9129 12.1272 14.8438 11.9531 14.8438H10.3125C10.1385 14.8438 9.97153 14.9129 9.84846 15.036C9.72539 15.159 9.65625 15.326 9.65625 15.5C9.65625 15.674 9.72539 15.841 9.84846 15.964C9.97153 16.0871 10.1385 16.1562 10.3125 16.1562H11.9531C12.1272 16.1562 12.2941 16.0871 12.4172 15.964C12.5402 15.841 12.6094 15.674 12.6094 15.5ZM13.7004 20.3727L12.5355 21.5293C12.4123 21.6537 12.3432 21.8218 12.3432 21.9969C12.3432 22.172 12.4123 22.34 12.5355 22.4645C12.6624 22.5835 12.8292 22.6508 13.0031 22.6531C13.1774 22.6524 13.3447 22.5849 13.4707 22.4645L14.6273 21.2996C14.7405 21.1748 14.8012 21.0112 14.7971 20.8428C14.7929 20.6744 14.7242 20.514 14.6051 20.3949C14.486 20.2758 14.3256 20.2071 14.1572 20.2029C13.9888 20.1988 13.8252 20.2595 13.7004 20.3727ZM19.5 22.3906C19.326 22.3906 19.159 22.4598 19.036 22.5828C18.9129 22.7059 18.8438 22.8728 18.8438 23.0469V24.6875C18.8438 24.8615 18.9129 25.0285 19.036 25.1515C19.159 25.2746 19.326 25.3438 19.5 25.3438C19.674 25.3438 19.841 25.2746 19.964 25.1515C20.0871 25.0285 20.1562 24.8615 20.1562 24.6875V23.0469C20.1562 22.8728 20.0871 22.7059 19.964 22.5828C19.841 22.4598 19.674 22.3906 19.5 22.3906ZM25.2996 20.3727C25.1748 20.2595 25.0112 20.1988 24.8428 20.2029C24.6744 20.2071 24.514 20.2758 24.3949 20.3949C24.2758 20.514 24.2071 20.6744 24.2029 20.8428C24.1988 21.0112 24.2595 21.1748 24.3727 21.2996L25.5293 22.4645C25.6553 22.5849 25.8226 22.6524 25.9969 22.6531C26.1708 22.6508 26.3376 22.5835 26.4645 22.4645C26.5877 22.34 26.6568 22.172 26.6568 21.9969C26.6568 21.8218 26.5877 21.6537 26.4645 21.5293L25.2996 20.3727ZM28.6875 14.8438H27.0469C26.8728 14.8438 26.7059 14.9129 26.5828 15.036C26.4598 15.159 26.3906 15.326 26.3906 15.5C26.3906 15.674 26.4598 15.841 26.5828 15.964C26.7059 16.0871 26.8728 16.1562 27.0469 16.1562H28.6875C28.8615 16.1562 29.0285 16.0871 29.1515 15.964C29.2746 15.841 29.3438 15.674 29.3438 15.5C29.3438 15.326 29.2746 15.159 29.1515 15.036C29.0285 14.9129 28.8615 14.8438 28.6875 14.8438ZM24.8402 10.816C24.9255 10.8168 25.0101 10.8005 25.089 10.7681C25.1679 10.7357 25.2395 10.6878 25.2996 10.6273L26.4645 9.4707C26.5691 9.3432 26.6226 9.18132 26.6145 9.01657C26.6064 8.85182 26.5373 8.69596 26.4207 8.57933C26.304 8.46269 26.1482 8.3936 25.9834 8.38551C25.8187 8.37742 25.6568 8.4309 25.5293 8.53555L24.3727 9.70039C24.2499 9.82342 24.181 9.99009 24.181 10.1639C24.181 10.3376 24.2499 10.5043 24.3727 10.6273C24.4338 10.6888 24.5067 10.7372 24.5871 10.7697C24.6675 10.8021 24.7536 10.8179 24.8402 10.816Z" fill="#0CA152"/>
</g>
<defs>
<filter id="filter0_d_2390_2898" x="0" y="0" width="40" height="40" filterUnits="userSpaceOnUse" color-interpolation-filters="sRGB">
<feFlood flood-opacity="0" result="BackgroundImageFix"/>
<feColorMatrix in="SourceAlpha" type="matrix" values="0 0 0 0 0 0 0 0 0 0 0 0 0 0 0 0 0 0 127 0" result="hardAlpha"/>
<feOffset dy="4"/>
<feGaussianBlur stdDeviation="3"/>
<feComposite in2="hardAlpha" operator="out"/>
<feColorMatrix type="matrix" values="0 0 0 0 0 0 0 0 0 0 0 0 0 0 0 0 0 0 0.1 0"/>
<feBlend mode="normal" in2="BackgroundImageFix" result="effect1_dropShadow_2390_2898"/>
<feBlend mode="normal" in="SourceGraphic" in2="effect1_dropShadow_2390_2898" result="shape"/>
</filter>
<clipPath id="clip0_2390_2898">
<rect width="21" height="21" fill="white" transform="translate(9 5)"/>
</clipPath>
</defs>
</svg>
