<svg width="24" height="24" viewBox="0 0 24 24" fill="none" xmlns="http://www.w3.org/2000/svg">
<path d="M0.0791016 15.7192C0.0791016 12.811 1.90961 11.0908 5.02351 11.0908H12.2255V12.5784H5.06825C2.72114 12.5784 1.45605 13.6952 1.45605 15.7213C1.45605 17.7474 2.72114 18.8642 5.06825 18.8642H12.2255V20.3518H5.02351C1.90758 20.3455 0.0791016 18.6483 0.0791016 15.7192Z" fill="#00622D"/>
<path d="M23.9449 7.95791C23.9449 10.864 22.1144 12.5842 19.0025 12.5842H11.7964V11.0966H18.9557C21.3049 11.0966 22.5679 9.97981 22.5679 7.95372C22.5679 5.92762 21.3049 4.81086 18.9557 4.81086H11.7964V3.32324H18.9984C22.1164 3.32953 23.9449 5.02667 23.9449 7.95791Z" fill="#00622D"/>
<path d="M15.2176 17.1143C17.2088 17.1143 19.6698 19.6872 19.6698 19.6872C19.6698 19.6872 17.2088 22.2602 15.2176 22.2602C13.2264 22.2602 12.4556 21.1078 12.4556 19.6872C12.4556 18.2666 13.2203 17.1143 15.2176 17.1143Z" stroke="#00622D" stroke-width="1.5" stroke-miterlimit="10" stroke-linecap="round"/>
<path d="M8.77642 6.80411C6.78524 6.80411 4.32422 4.23116 4.32422 4.23116C4.32422 4.23116 6.78524 1.6582 8.77642 1.6582C10.7676 1.6582 11.5385 2.81058 11.5385 4.23116C11.5385 5.65173 10.7798 6.80411 8.77642 6.80411Z" stroke="#00622D" stroke-width="1.5" stroke-miterlimit="10" stroke-linecap="round"/>
</svg>
