<svg width="35" height="35" viewBox="0 0 35 35" fill="none" xmlns="http://www.w3.org/2000/svg">
<path d="M30.6253 5.40041C30.6062 5.13476 30.4921 4.88487 30.3038 4.69654C30.1154 4.50821 29.8656 4.39407 29.5999 4.37502C19.1683 3.75979 10.8147 6.90432 7.24639 12.7969C6.01129 14.8119 5.40223 17.1482 5.49639 19.5098C5.57842 21.6836 6.20732 23.8985 7.38311 26.0723L4.68975 28.752C4.48436 28.9593 4.36914 29.2394 4.36914 29.5313C4.36914 29.8231 4.48436 30.1032 4.68975 30.3106C4.89881 30.5127 5.17824 30.6257 5.46904 30.6257C5.75985 30.6257 6.03928 30.5127 6.24834 30.3106L8.92803 27.6172C11.1019 28.793 13.3167 29.4219 15.4905 29.5039H15.9417C18.151 29.5134 20.3192 28.9075 22.2034 27.7539C28.096 24.1856 31.2405 15.8321 30.6253 5.40041ZM21.0823 25.8809C17.9515 27.7676 14.2601 27.7949 10.555 25.9903L22.6546 13.9043C22.829 13.6918 22.9181 13.422 22.9046 13.1474C22.8912 12.8728 22.776 12.6131 22.5816 12.4187C22.3872 12.2243 22.1275 12.1091 21.8529 12.0957C21.5783 12.0822 21.3085 12.1713 21.096 12.3457L9.01006 24.4453C7.20537 20.7403 7.23271 17.0488 9.11943 13.918C12.1409 8.92775 19.346 6.19338 28.4925 6.50783C28.8069 15.6543 26.0726 22.8594 21.0823 25.8809Z" fill="#45596A"/>
<path d="M10 5C10 5.15913 9.93679 5.31174 9.82426 5.42426C9.71174 5.53679 9.55913 5.6 9.4 5.6H5.6V9.4C5.6 9.55913 5.53679 9.71174 5.42426 9.82426C5.31174 9.93679 5.15913 10 5 10C4.84087 10 4.68826 9.93679 4.57574 9.82426C4.46321 9.71174 4.4 9.55913 4.4 9.4V5.6H0.6C0.44087 5.6 0.288258 5.53679 0.175736 5.42426C0.0632141 5.31174 0 5.15913 0 5C0 4.84087 0.0632141 4.68826 0.175736 4.57574C0.288258 4.46321 0.44087 4.4 0.6 4.4H4.4V0.6C4.4 0.44087 4.46321 0.288258 4.57574 0.175736C4.68826 0.0632141 4.84087 0 5 0C5.15913 0 5.31174 0.0632141 5.42426 0.175736C5.53679 0.288258 5.6 0.44087 5.6 0.6V4.4H9.4C9.55913 4.4 9.71174 4.46321 9.82426 4.57574C9.93679 4.68826 10 4.84087 10 5Z" fill="#45596A"/>
</svg>
