<svg width="22" height="22" viewBox="0 0 22 22" fill="none" xmlns="http://www.w3.org/2000/svg">
<path d="M6.90078 7.52809C6.77221 7.3992 6.70001 7.22459 6.70001 7.04254C6.70001 6.86049 6.77221 6.68588 6.90078 6.55699L10.5102 2.94762C10.6405 2.81852 10.8165 2.74609 11 2.74609C11.1835 2.74609 11.3595 2.81852 11.4898 2.94762L15.0992 6.55699C15.2278 6.68588 15.3 6.86049 15.3 7.04254C15.3 7.22459 15.2278 7.3992 15.0992 7.52809C15.0352 7.59304 14.959 7.64463 14.8749 7.67984C14.7908 7.71505 14.7005 7.73319 14.6094 7.73319C14.5182 7.73319 14.4279 7.71505 14.3439 7.67984C14.2598 7.64463 14.1835 7.59304 14.1195 7.52809L11.6875 5.09605V13.0625C11.6875 13.2448 11.6151 13.4197 11.4861 13.5486C11.3572 13.6775 11.1823 13.75 11 13.75C10.8177 13.75 10.6428 13.6775 10.5139 13.5486C10.3849 13.4197 10.3125 13.2448 10.3125 13.0625V5.09605L7.88047 7.52809C7.8165 7.59304 7.74024 7.64463 7.65615 7.67984C7.57205 7.71505 7.48179 7.73319 7.39062 7.73319C7.29946 7.73319 7.2092 7.71505 7.1251 7.67984C7.04101 7.64463 6.96475 7.59304 6.90078 7.52809ZM18.5625 12.375C18.3802 12.375 18.2053 12.4474 18.0764 12.5763C17.9474 12.7053 17.875 12.8801 17.875 13.0625V17.875H4.125V13.0625C4.125 12.8801 4.05257 12.7053 3.92364 12.5763C3.7947 12.4474 3.61984 12.375 3.4375 12.375C3.25516 12.375 3.0803 12.4474 2.95136 12.5763C2.82243 12.7053 2.75 12.8801 2.75 13.0625V17.875C2.75 18.2396 2.89487 18.5894 3.15273 18.8472C3.41059 19.1051 3.76033 19.25 4.125 19.25H17.875C18.2397 19.25 18.5894 19.1051 18.8473 18.8472C19.1051 18.5894 19.25 18.2396 19.25 17.875V13.0625C19.25 12.8801 19.1776 12.7053 19.0486 12.5763C18.9197 12.4474 18.7448 12.375 18.5625 12.375Z" />
</svg>
