<svg width="44" height="44" viewBox="0 0 44 44" fill="none" xmlns="http://www.w3.org/2000/svg">
<circle cx="22" cy="22" r="22" fill="#1D185B"/>
<path d="M22 44C16.1652 44 10.5695 41.6821 6.44365 37.5563C2.31785 33.4305 -1.62312e-07 27.8348 0 22C1.62312e-07 16.1652 2.31785 10.5695 6.44365 6.44365C10.5695 2.31785 16.1652 -6.95788e-08 22 0V22L22 44Z" fill="#D0D5FE"/>
<path d="M10.0747 36.5972C8.59893 34.63 9.69862 32.5568 12.1284 30.7339C14.5582 28.911 17.3979 28.0287 18.8737 29.9958C20.3495 31.963 19.5762 35.0354 17.1464 36.8583C14.7166 38.6812 11.5505 38.5643 10.0747 36.5972Z" fill="#C2C4F2" fill-opacity="0.65"/>
<circle cx="17.7313" cy="28.8691" r="2.04948" transform="rotate(143.122 17.7313 28.8691)" fill="#C2C4F2" fill-opacity="0.65"/>
<path d="M12.4492 5.57161C13.2459 6.37561 11.5844 7.00111 10.4341 8.14104C9.28375 9.28097 9.08015 10.5037 8.28342 9.69967C7.48669 8.89567 7.77335 7.3198 8.92369 6.17987C10.074 5.03994 11.6524 4.76761 12.4492 5.57161Z" fill="#C2C4F2" fill-opacity="0.65"/>
<circle cx="35.0281" cy="37.0278" r="1.43555" transform="rotate(-132.415 35.0281 37.0278)" fill="#060417" fill-opacity="0.65"/>
<ellipse cx="32.154" cy="37.3501" rx="0.798476" ry="1.13938" transform="rotate(-158.921 32.154 37.3501)" fill="#060417" fill-opacity="0.65"/>
<circle cx="24.5083" cy="3.95938" r="0.36037" transform="rotate(-132.415 24.5083 3.95938)" fill="#060417"/>
<circle cx="23.5093" cy="5.50895" r="0.36037" transform="rotate(-132.415 23.5093 5.50895)" fill="#060417"/>
<circle cx="14.5083" cy="26.5089" r="0.36037" transform="rotate(-132.415 14.5083 26.5089)" fill="#C2C4F2" fill-opacity="0.65"/>
<circle cx="30.1259" cy="9.42356" r="0.36037" transform="rotate(-45.0022 30.1259 9.42356)" fill="#060417" fill-opacity="0.65"/>
<circle cx="18.8867" cy="4.88679" r="0.627769" transform="rotate(-132.415 18.8867 4.88679)" fill="#C2C4F2" fill-opacity="0.65"/>
<circle cx="35.8867" cy="32.8868" r="0.627769" transform="rotate(-132.415 35.8867 32.8868)" fill="#060417" fill-opacity="0.65"/>
<circle cx="6.88672" cy="10.8868" r="0.627769" transform="rotate(-132.415 6.88672 10.8868)" fill="#C2C4F2" fill-opacity="0.65"/>
<circle cx="29.7189" cy="8.81979" r="0.627769" transform="rotate(-45.0022 29.7189 8.81979)" fill="#060417" fill-opacity="0.65"/>
<ellipse rx="1.07719" ry="1.07935" transform="matrix(0.412837 -0.910805 0.90794 0.4191 40.4247 29.4332)" fill="#060417" fill-opacity="0.65"/>
<path d="M38.1613 30.802C37.8737 30.2806 38.8015 30.1976 39.5446 29.7808C40.2877 29.364 40.5647 28.7711 40.8523 29.2926C41.1399 29.8141 40.7707 30.5747 40.0276 30.9915C39.2845 31.4083 38.4489 31.3235 38.1613 30.802Z" fill="#060417" fill-opacity="0.65"/>
<ellipse rx="0.75551" ry="0.755022" transform="matrix(0.944097 0.329667 -0.322914 0.946428 25.5759 38.9251)" fill="#060417" fill-opacity="0.65"/>
<ellipse rx="0.75551" ry="0.755022" transform="matrix(0.944097 0.329667 -0.322914 0.946428 11.7244 27.7227)" fill="#C2C4F2" fill-opacity="0.65"/>
<ellipse rx="0.418974" ry="0.601041" transform="matrix(0.991843 -0.127468 0.132242 0.991217 12.9677 26.8531)" fill="#C2C4F2" fill-opacity="0.65"/>
<ellipse rx="0.189658" ry="0.189536" transform="matrix(0.944097 0.329667 -0.322914 0.946428 24.9108 40.4262)" fill="#060417" fill-opacity="0.65"/>
<ellipse rx="0.189658" ry="0.189536" transform="matrix(0.944097 0.329667 -0.322914 0.946428 24.9802 39.457)" fill="#060417" fill-opacity="0.65"/>
<ellipse rx="0.189658" ry="0.189536" transform="matrix(0.944097 0.329667 -0.322914 0.946428 23.8278 27.4621)" fill="#060417" fill-opacity="0.65"/>
<ellipse rx="0.189597" ry="0.189597" transform="matrix(-0.279853 0.960043 -0.958011 -0.286732 20.945 39.2988)" fill="#C2C4F2" fill-opacity="0.65"/>
<ellipse rx="0.330387" ry="0.330174" transform="matrix(0.944097 0.329667 -0.322914 0.946428 27.2658 38.5879)" fill="#060417" fill-opacity="0.65"/>
<ellipse rx="0.330387" ry="0.330174" transform="matrix(0.944097 0.329667 -0.322914 0.946428 12.3733 29.8584)" fill="#C2C4F2" fill-opacity="0.65"/>
<ellipse rx="0.330387" ry="0.330174" transform="matrix(0.944097 0.329667 -0.322914 0.946428 31.2776 32.7996)" fill="#060417" fill-opacity="0.65"/>
<ellipse rx="0.33028" ry="0.33028" transform="matrix(-0.279853 0.960043 -0.958011 -0.286732 21.2855 39.4768)" fill="#C2C4F2" fill-opacity="0.65"/>
</svg>
