<svg width="44" height="44" viewBox="0 0 44 44" fill="none" xmlns="http://www.w3.org/2000/svg">
<circle r="22" transform="matrix(-1 0 0 1 22 22)" fill="#1D185B"/>
<circle r="22" transform="matrix(-1 0 0 1 22 22)" fill="url(#paint0_radial_2170_1240)" fill-opacity="0.25"/>
<path d="M33.9253 36.5972C35.4011 34.63 34.3014 32.5568 31.8716 30.7339C29.4418 28.911 26.6021 28.0287 25.1263 29.9958C23.6505 31.963 24.4238 35.0354 26.8536 36.8583C29.2834 38.6812 32.4495 38.5643 33.9253 36.5972Z" fill="#060417" fill-opacity="0.65"/>
<circle r="2.04948" transform="matrix(0.79991 0.600119 0.600119 -0.79991 26.2687 28.8691)" fill="#060417" fill-opacity="0.65"/>
<path d="M31.5508 5.57186C30.7541 6.37586 32.4156 7.00136 33.5659 8.14129C34.7163 9.28122 34.9199 10.5039 35.7166 9.69991C36.5133 8.89591 36.2266 7.32004 35.0763 6.18011C33.926 5.04018 32.3476 4.76786 31.5508 5.57186Z" fill="#060417" fill-opacity="0.65"/>
<circle r="1.43555" transform="matrix(0.674498 -0.738277 -0.738277 -0.674498 21.9719 5.85618)" fill="#060417" fill-opacity="0.65"/>
<circle r="1.43555" transform="matrix(0.674498 -0.738277 -0.738277 -0.674498 8.97192 37.0278)" fill="#060417" fill-opacity="0.65"/>
<ellipse rx="0.798476" ry="1.13938" transform="matrix(0.933084 -0.359659 -0.359659 -0.933084 11.846 37.3501)" fill="#060417" fill-opacity="0.65"/>
<circle r="0.36037" transform="matrix(0.674498 -0.738277 -0.738277 -0.674498 19.4917 3.95914)" fill="#060417" fill-opacity="0.65"/>
<circle r="0.36037" transform="matrix(0.674498 -0.738277 -0.738277 -0.674498 20.4907 5.50895)" fill="#060417" fill-opacity="0.65"/>
<circle r="0.36037" transform="matrix(0.674498 -0.738277 -0.738277 -0.674498 29.4917 26.5089)" fill="#060417" fill-opacity="0.65"/>
<circle r="0.36037" transform="matrix(-0.707079 -0.707134 -0.707134 0.707079 13.8741 9.42332)" fill="#060417" fill-opacity="0.65"/>
<circle r="0.627769" transform="matrix(0.674498 -0.738277 -0.738277 -0.674498 25.1133 4.88654)" fill="#060417" fill-opacity="0.65"/>
<circle r="0.627769" transform="matrix(0.674498 -0.738277 -0.738277 -0.674498 8.11328 32.8868)" fill="#060417" fill-opacity="0.65"/>
<circle r="0.627769" transform="matrix(0.674498 -0.738277 -0.738277 -0.674498 37.1133 10.8865)" fill="#060417" fill-opacity="0.65"/>
<circle r="0.627769" transform="matrix(-0.707079 -0.707134 -0.707134 0.707079 14.2811 8.81979)" fill="#060417" fill-opacity="0.65"/>
<ellipse rx="1.07719" ry="1.07935" transform="matrix(-0.412837 -0.910805 -0.90794 0.4191 3.57531 29.4332)" fill="#060417" fill-opacity="0.65"/>
<path d="M5.83869 30.802C6.1263 30.2806 5.1985 30.1976 4.45541 29.7808C3.71232 29.364 3.43533 28.7711 3.14772 29.2926C2.86011 29.8141 3.22935 30.5747 3.97244 30.9915C4.71553 31.4083 5.55108 31.3235 5.83869 30.802Z" fill="#060417" fill-opacity="0.65"/>
<ellipse rx="0.75551" ry="0.755022" transform="matrix(-0.944097 0.329667 0.322914 0.946428 18.4241 38.9251)" fill="#060417" fill-opacity="0.65"/>
<ellipse rx="0.75551" ry="0.755022" transform="matrix(-0.944097 0.329667 0.322914 0.946428 32.2756 27.7227)" fill="#060417" fill-opacity="0.65"/>
<ellipse rx="0.418974" ry="0.601041" transform="matrix(-0.991843 -0.127468 -0.132242 0.991217 31.0323 26.8531)" fill="#060417" fill-opacity="0.65"/>
<ellipse rx="0.189658" ry="0.189536" transform="matrix(-0.944097 0.329667 0.322914 0.946428 19.0892 40.4262)" fill="#060417" fill-opacity="0.65"/>
<ellipse rx="0.189658" ry="0.189536" transform="matrix(-0.944097 0.329667 0.322914 0.946428 19.0198 39.457)" fill="#060417" fill-opacity="0.65"/>
<ellipse rx="0.189658" ry="0.189536" transform="matrix(-0.944097 0.329667 0.322914 0.946428 20.1722 27.4621)" fill="#060417" fill-opacity="0.65"/>
<ellipse rx="0.189597" ry="0.189597" transform="matrix(0.279853 0.960043 0.958011 -0.286732 23.055 39.2988)" fill="#060417" fill-opacity="0.65"/>
<ellipse rx="0.330387" ry="0.330174" transform="matrix(-0.944097 0.329667 0.322914 0.946428 16.7342 38.5879)" fill="#060417" fill-opacity="0.65"/>
<ellipse rx="0.330387" ry="0.330174" transform="matrix(-0.944097 0.329667 0.322914 0.946428 31.6267 29.8584)" fill="#060417" fill-opacity="0.65"/>
<ellipse rx="0.330387" ry="0.330174" transform="matrix(-0.944097 0.329667 0.322914 0.946428 12.7224 32.7996)" fill="#060417" fill-opacity="0.65"/>
<ellipse rx="0.33028" ry="0.33028" transform="matrix(0.279853 0.960043 0.958011 -0.286732 22.7145 39.4768)" fill="#060417" fill-opacity="0.65"/>
<defs>
<radialGradient id="paint0_radial_2170_1240" cx="0" cy="0" r="1" gradientUnits="userSpaceOnUse" gradientTransform="translate(22 22) rotate(90) scale(21.9999)">
<stop offset="0.583333" stop-color="#242D7D"/>
<stop offset="1" stop-color="#0C0826" stop-opacity="0"/>
</radialGradient>
</defs>
</svg>
